<svg xmlns="http://www.w3.org/2000/svg" viewBox="0 0 284.1 283.62"><title>icon</title><g id="Layer_2" data-name="Layer 2"><g id="Layer_2-2" data-name="Layer 2"><path d="M284.1,52.23C281,6.55,230.54.25,230.54.25H58.85C-3.63,7.08,0,69.56,0,69.56v44.1L0,220.25s1.62,66.16,73,63.53l158.57.08s47.78-3.75,52.51-58.88Z" transform="translate(0 -0.24)" fill="#4d91ff"/></g><g id="Layer_5" data-name="Layer 5"><path d="M226.86.24l-1.08,264.45a13.44,13.44,0,0,1-8.64-.45c-2.61-1.29-7.8-8.19-13-2.79a21.46,21.46,0,0,1-12.33,6c-4.95-.84-6.9-3.24-11.88-6.69s-15.54,5.61-19.86,6.69-13-6.48-16.68-7.77-11.4,6.48-15.09,7.62-9.06-2-11-4.59-8.85-7.14-16.2,1.59-14.91.78-15.54,0-7.35-8.07-12.33-3.33S59,264,59,264L58.83.24ZM209.34,123.3a7.88,7.88,0,0,0-.21-3.27c-.3-.33-17.76.3-18.42.21s-.54,1.53-.54,1.53c-.09,2.52.36,2.67.36,2.67s17.46-.06,18.15,0S209.34,123.3,209.34,123.3Zm0,18a7.88,7.88,0,0,0-.21-3.27c-.3-.33-17.76.3-18.42.21s-.54,1.53-.54,1.53c-.09,2.52.36,2.67.36,2.67s17.46-.06,18.15,0S209.34,141.3,209.34,141.3Zm0,16.26a7.88,7.88,0,0,0-.21-3.27c-.3-.3-17.76.3-18.42.24s-.54,1.53-.54,1.53c-.09,2.52.36,2.67.36,2.67s17.46-.09,18.15,0S209.34,157.56,209.34,157.56Zm0,17.28a8.06,8.06,0,0,0-.21-3.3c-.3-.3-17.76.33-18.42.24s-.54,1.53-.54,1.53c-.09,2.52.36,2.67.36,2.67s17.46-.09,18.15,0S209.34,174.84,209.34,174.84ZM179.07,233V200.46c0-1.35-.3-2.19-1.2-2.22l-2.94,0c-1.8-.18-1.2,1.86-1.2,1.86v33.69s-.3,2.22,1.77,2H178S179.07,236.55,179.07,233Zm-9.3,0V200.46c0-1.35-.39-2.19-1.53-2.22l-3.84,0c-2.31-.18-1.56,1.86-1.56,1.86v33.69s-.36,2.22,2.31,2h3.27S169.77,236.55,169.77,233Zm-11.22,0V200.46c0-1.35-.3-2.19-1.17-2.22l-3,0c-1.77-.18-1.17,1.86-1.17,1.86v33.69s-.3,2.22,1.77,2h2.52S158.55,236.55,158.55,233Zm-.21-109.65c.54-.45.39-3-.93-3.27s-75,.3-77.7.21-2.28,1.53-2.28,1.53c-.48,2.52,1.44,2.67,1.44,2.67s73.74-.06,76.65,0S158.34,123.3,158.34,123.3Zm-5.88,34.26c.51-.45.36-3-.84-3.27s-69.6.3-72.09.24-2.13,1.53-2.13,1.53c-.42,2.52,1.35,2.67,1.35,2.67s68.4-.09,71.1,0S152.46,157.56,152.46,157.56ZM148.83,233V200.46c0-1.35-.51-2.19-2-2.22l-5.13,0c-3.06-.18-2,1.86-2,1.86v33.69s-.51,2.22,3.09,2H147S148.83,236.55,148.83,233Zm-14.55,0V200.46c0-1.35-.24-2.19-1-2.22l-2.46,0c-1.47-.18-1,1.86-1,1.86v33.69s-.24,2.22,1.5,2h2.07S134.28,236.55,134.28,233Zm-.21-91.65c.39-.45.27-3-.63-3.27s-52.56.3-54.45.21-1.59,1.53-1.59,1.53c-.33,2.52,1,2.67,1,2.67s51.66-.06,53.7,0S134.07,141.3,134.07,141.3ZM124.17,233V200.46c0-1.35-.3-2.19-1.2-2.22l-2.91,0c-1.77-.18-1.2,1.86-1.2,1.86v33.69s-.27,2.22,1.77,2h2.49S124.17,236.55,124.17,233Zm-8.28-58.11c.24-.45.18-3-.45-3.3s-35.7.33-37,.24-1.11,1.53-1.11,1.53c-.21,2.52.69,2.67.69,2.67s35.1-.09,36.48,0A1.13,1.13,0,0,0,115.89,174.84ZM113.1,233V200.46c0-1.35-.33-2.19-1.35-2.22l-3.42,0c-2-.18-1.35,1.86-1.35,1.86v33.69a1.73,1.73,0,0,0,2,2h2.88S113.1,236.55,113.1,233Z" transform="translate(0 -0.24)" fill="#fff"/></g><g id="Layer_4" data-name="Layer 4"><path d="M166.48,87.28l-.53.57q-.34.38-.72.75a31,31,0,0,1-6,4.67l-.23.13-.42.24-.16.09,0,0-.48.25-.08,0,0,0-.54.28c-.57.29-1.16.56-1.76.81a30.75,30.75,0,0,1-23.82,0l-.81-.36-.45-.21,0,0-1-.49-.58-.31h0l-.18-.1-.4-.22,0,0-.24-.13-.36-.22-.28-.18A30.72,30.72,0,0,1,122,88.6q-.39-.39-.75-.78c-.18-.19-.36-.38-.53-.58.14-.49.29-1,.46-1.47,2.48-7.13,8.63-13.07,22.15-13.35,13.88.28,20.19,6.24,22.73,13.39C166.19,86.3,166.34,86.78,166.48,87.28Z" transform="translate(0 -0.24)" fill="#d4916e"/><path d="M166.49,85.23A19.88,19.88,0,0,0,164.28,81c-4-5.89-11.09-9-21-9.18h0c-9.54.2-16.38,3.21-20.34,9a20.13,20.13,0,0,0-2.28,4.46c-.18.48-.34,1-.49,1.48l.51.58c.17.2.35.39.53.58.12-.5.27-1,.43-1.48A19.22,19.22,0,0,1,124,81.45c3.7-5.37,10.19-8.19,19.28-8.38,9.45.19,16.15,3.09,19.93,8.61a18.83,18.83,0,0,1,2.31,4.7c.16.49.31,1,.43,1.47l.53-.57.5-.58C166.83,86.2,166.67,85.71,166.49,85.23Z" transform="translate(0 -0.24)" fill="#2f1d45"/><path d="M157.85,94.05l0,0-.54.28c-.57.29-1.16.56-1.76.81a30.75,30.75,0,0,1-23.82,0l-.81-.36-.45-.21,0,0-1-.49-.58-.31h0c2.07-6.64,7.77-11.41,14.47-11.41.4,0,.79,0,1.18.05a14.7,14.7,0,0,1,9.71,5A17.4,17.4,0,0,1,157.85,94.05Z" transform="translate(0 -0.24)" fill="#fcb086"/><path d="M144.46,82.4a13.55,13.55,0,0,0-3.76.86,16.37,16.37,0,0,0-9.83,11.54l-.45-.21,0,0-1-.49-.58-.31h0c2.07-6.64,7.77-11.41,14.47-11.41C143.68,82.35,144.07,82.37,144.46,82.4Z" transform="translate(0 -0.24)" fill="#333" opacity="0.2"/><path d="M143.28,81.71c-6.94,0-12.86,4.9-15.05,11.73l.4.22.18.1h0l.58.31A15.26,15.26,0,0,1,140.7,83.26a13,13,0,0,1,2.58-.26c6.54,0,12.09,4.77,14,11.35l.54-.28,0,0,.08,0,.48-.25,0,0C156.32,86.75,150.33,81.71,143.28,81.71Z" transform="translate(0 -0.24)" fill="#2f1d45"/><path d="M180.9,85.11l3.6,38.52-67.38,5.46v0l-9.42.69L105,91.05ZM180.51,121,178,89l-69.84,5.49,2.67,31.38Z" transform="translate(0 -0.24)" fill="#7dc231"/><path d="M149,94l-10.44.84L119,96.42a10.37,10.37,0,0,1-7,8l1.17,11.4c7.14,1.77,7.17,6.72,7.17,6.81l20.76-1.86,9.87-.9,19.59-1.74c1.74-7,7-8.28,7-8.28l-.93-10.71c-6.81.15-8.28-6.78-8.28-6.78ZM178,89,180.51,121l-69.66,4.92-2.67-31.38Z" transform="translate(0 -0.24)" fill="#62a343"/><path d="M176.61,99.18l.93,10.71s-5.28,1.29-7,8.28l-19.59,1.74c9.72-14.07-1.47-25.44-2-25.92l19.35-1.59S169.8,99.33,176.61,99.18Zm-11.52,7.38a2.31,2.31,0,1,0-2.52,2.07A2.3,2.3,0,0,0,165.09,106.56Z" transform="translate(0 -0.24)" fill="#73c613"/><path d="M163,104a2.31,2.31,0,1,1-2.52,2.07A2.3,2.3,0,0,1,163,104Z" transform="translate(0 -0.24)" fill="#f8feef"/><path d="M149,94c.48.48,11.67,11.85,2,25.92l-9.87.9c-12.09-11.31-2.52-26-2.52-26Z" transform="translate(0 -0.24)" fill="#62a343"/><path d="M141.06,120.81l-20.76,1.86c0-.09,0-5-7.17-6.81L112,104.46a10.37,10.37,0,0,0,7-8l19.59-1.59S129,109.5,141.06,120.81ZM129,108.93a2.47,2.47,0,0,0-2.25-2.7,2.47,2.47,0,1,0,2.25,2.7Z" transform="translate(0 -0.24)" fill="#73c613"/><path d="M126.75,106.23a2.47,2.47,0,1,1-2.7,2.22A2.5,2.5,0,0,1,126.75,106.23Z" transform="translate(0 -0.24)" fill="#f8feef"/><circle cx="165.26" cy="24.96" r="10.88" fill="#d4916e"/><path d="M176.14,25.2a10.88,10.88,0,0,1-10.88,10.87,10.75,10.75,0,0,1-5.43-1.45A10.88,10.88,0,0,0,169,15,10.89,10.89,0,0,1,176.14,25.2Z" transform="translate(0 -0.24)" fill="#231f20" opacity="0.1"/><circle cx="165.26" cy="25.2" r="6.86" transform="translate(113.92 184.05) rotate(-80.78)" fill="#fcb086"/><path d="M172.12,25.2A6.86,6.86,0,0,1,161.53,31a6.68,6.68,0,0,0,2,.3,6.86,6.86,0,0,0,3.73-12.61A6.87,6.87,0,0,1,172.12,25.2Z" transform="translate(0 -0.24)" fill="#231f20" opacity="0.1"/><path d="M165.26,36.69a11.5,11.5,0,1,1,11.5-11.49A11.5,11.5,0,0,1,165.26,36.69Zm0-21.75A10.26,10.26,0,1,0,175.52,25.2,10.27,10.27,0,0,0,165.26,14.94Z" transform="translate(0 -0.24)" fill="#2f1d45"/><circle cx="121.89" cy="24.96" r="10.88" fill="#d4916e"/><path d="M111,25.2a10.88,10.88,0,0,0,16.31,9.42A10.88,10.88,0,0,1,118.18,15,10.89,10.89,0,0,0,111,25.2Z" transform="translate(0 -0.24)" fill="#231f20" opacity="0.1"/><circle cx="121.89" cy="25.2" r="6.86" transform="translate(-2.46 19.61) rotate(-9.22)" fill="#fcb086"/><path d="M115,25.2a6.86,6.86,0,0,0,6.86,6.85,6.77,6.77,0,0,0,3.72-1.1,6.59,6.59,0,0,1-2,.3,6.86,6.86,0,0,1-3.72-12.61A6.86,6.86,0,0,0,115,25.2Z" transform="translate(0 -0.24)" fill="#231f20" opacity="0.1"/><path d="M110.39,25.2a11.5,11.5,0,1,1,11.5,11.49A11.51,11.51,0,0,1,110.39,25.2Zm1.24,0a10.26,10.26,0,1,0,10.26-10.26A10.27,10.27,0,0,0,111.63,25.2Z" transform="translate(0 -0.24)" fill="#2f1d45"/><path d="M172.77,63.18A21.87,21.87,0,0,1,169,67.33C159.28,75.77,143.57,76,143.57,76s-15.7-.19-25.45-8.63a22.56,22.56,0,0,1-3.75-4.15,12.6,12.6,0,0,1-1.56-10.79c3.18-10.3,10-33.12,30.76-33.12,21.16,0,27.58,22.82,30.77,33.12A12.57,12.57,0,0,1,172.77,63.18Z" transform="translate(0 -0.24)" fill="#d4916e"/><path d="M158.73,73.1A52.57,52.57,0,0,1,143.57,76s-20.51-.25-29.2-12.79a12.57,12.57,0,0,1-1.56-10.78c2.83-9.16,8.5-28.26,24.39-32.34-13.88,5.41-19.07,22.85-21.74,31.48A12.59,12.59,0,0,0,117,62.32c8.68,12.54,29.2,12.79,29.2,12.79A52.54,52.54,0,0,0,158.73,73.1Z" transform="translate(0 -0.24)" fill="#231f20" opacity="0.1"/><ellipse cx="132.78" cy="38.46" rx="4.55" ry="6.22" fill="#2f1d45"/><ellipse cx="134.13" cy="37.52" rx="1.54" ry="1.91" fill="#f8fff8"/><ellipse cx="154.37" cy="38.46" rx="4.55" ry="6.22" fill="#2f1d45"/><ellipse cx="153.02" cy="37.52" rx="1.54" ry="1.91" fill="#f8fff8"/><path d="M169,67.33C159.28,75.77,143.57,76,143.57,76s-15.7-.19-25.45-8.63c0-.06,0-.12,0-.19.69-23.09,25.44-20.38,25.44-20.38S168.33,44.05,169,67.14Z" transform="translate(0 -0.24)" fill="#fcb086"/><path d="M149.08,52.39c-1.62-1.9-5.51-1.9-5.51-1.9s-3.88,0-5.5,1.9c0,0-.06,3.33,5.5,5C149.13,55.72,149.08,52.39,149.08,52.39Z" transform="translate(0 -0.24)" fill="#2f1d45"/><path d="M146.72,62.2a22,22,0,0,0-6.13-.1,16,16,0,0,0-5,1.35,7.89,7.89,0,0,0,1.83,4.14l0,0a7.14,7.14,0,0,0,5.45,2h1.29a7.14,7.14,0,0,0,5.45-2l0,0a7.79,7.79,0,0,0,1.82-4.14A25.18,25.18,0,0,0,146.72,62.2Z" transform="translate(0 -0.24)" fill="#2f1d45"/><path d="M149.71,67.59l0,0a7.14,7.14,0,0,1-5.45,2h-1.29a7.14,7.14,0,0,1-5.45-2l0,0,0,0a7.14,7.14,0,0,1,5.45-2h1.29a7.14,7.14,0,0,1,5.45,2Z" transform="translate(0 -0.24)" fill="#ff4b8c"/><path d="M143.58,76.58a52.11,52.11,0,0,1-11.51-1.71c-5.77-1.51-13.61-4.71-18.21-11.34a13.21,13.21,0,0,1-1.65-11.33l.14-.43c1.66-5.38,4.17-13.5,8.91-20.44,5.75-8.42,13.26-12.69,22.31-12.69,21,0,27.83,22.08,31.09,32.69l.27.87a13.18,13.18,0,0,1-1.65,11.33c-4.59,6.63-12.43,9.83-18.2,11.34A52.21,52.21,0,0,1,143.58,76.58Zm0-56.7c-20.07,0-26.8,21.79-30,32.26l-.13.43a11.93,11.93,0,0,0,1.48,10.25c8.4,12.13,28.5,12.52,28.7,12.52s20.29-.39,28.68-12.52a11.93,11.93,0,0,0,1.49-10.25l-.27-.88C170.3,41.37,163.69,19.88,143.57,19.88Z" transform="translate(0 -0.24)" fill="#2f1d45"/><path d="M176.82,92a2.8,2.8,0,0,1-2.41,1.11.5.5,0,0,1,0-.12,7.39,7.39,0,0,0,.1-1.4,1.48,1.48,0,0,0,0-.21,11.11,11.11,0,0,0-.1-1.16l0-.09a7.36,7.36,0,0,0-.3-1.23c0,.42,0,.83-.09,1.24h0q-.07.7-.21,1.38a8.48,8.48,0,0,1-.81,2.35,4.54,4.54,0,0,1-.68.93,3.66,3.66,0,0,1-.87.65,4,4,0,0,1-1,.36,5.51,5.51,0,0,1-1.16.09H169l-.3,0c-.21,0-.4,0-.59-.07s-.19,0-.29-.06l-.28-.07a4.81,4.81,0,0,1-.53-.2,3.22,3.22,0,0,1-.93-.58,3.43,3.43,0,0,1-.69-.86,6,6,0,0,1-.7-2.32,11.74,11.74,0,0,1,0-2.14h0c0-.16,0-.32,0-.49a7.27,7.27,0,0,0-.47,1.28,6.18,6.18,0,0,0-.2,1h0c0,.12,0,.25,0,.38a5.79,5.79,0,0,0,0,.72c0,.23,0,.46,0,.69s.06.42.11.63v0s0,.11.05.17a3,3,0,0,1-2.14-.09c-1.7-.86-2.28-3.15-2.18-5.19h0a8.12,8.12,0,0,1,.37-2.09,8.56,8.56,0,0,1,5.32-5.12,12.1,12.1,0,0,1,9.86.39A5.91,5.91,0,0,1,178,84.9h0a7.1,7.1,0,0,1,.3,1A7.59,7.59,0,0,1,176.82,92Z" transform="translate(0 -0.24)" fill="#d4916e"/><path d="M173.65,91.29q.21-.58.36-1.17-.07.7-.21,1.38a8.48,8.48,0,0,1-.81,2.35,4.54,4.54,0,0,1-.68.93,3.66,3.66,0,0,1-.87.65,4,4,0,0,1-1,.36,5.51,5.51,0,0,1-1.16.09H169l-.3,0c-.21,0-.4,0-.59-.07s-.19,0-.29-.06l-.28-.07a4.81,4.81,0,0,1-.53-.2,3.22,3.22,0,0,1-.93-.58,3.43,3.43,0,0,1-.69-.86,6,6,0,0,1-.7-2.32,11.74,11.74,0,0,1,0-2.14c.5,1.83.92,3.4,2.79,4.26,1.65.75,4.34.37,5.48-1A5.25,5.25,0,0,0,173.65,91.29Z" transform="translate(0 -0.24)" fill="#231f20" opacity="0.2"/><path d="M164.08,93.94a3,3,0,0,1-2.14-.09c-1.7-.86-2.28-3.15-2.18-5.19a6.62,6.62,0,0,0,.63,1.56,4.67,4.67,0,0,0,1.48,1.61,2.41,2.41,0,0,0,.5.21,1.49,1.49,0,0,0,1,0,1,1,0,0,0,.5-.43,2.29,2.29,0,0,0,.08-.28c0,.12,0,.25,0,.38a5.79,5.79,0,0,0,0,.72c0,.23,0,.46,0,.69s.06.42.11.63v0S164.06,93.88,164.08,93.94Z" transform="translate(0 -0.24)" fill="#231f20" opacity="0.2"/><path d="M176.82,92a2.8,2.8,0,0,1-2.41,1.11.5.5,0,0,1,0-.12,7.39,7.39,0,0,0,.1-1.4,1.48,1.48,0,0,0,0-.21,11.11,11.11,0,0,0-.1-1.16l0-.09a1.23,1.23,0,0,1,.11.23,1,1,0,0,0,.91.56,1.52,1.52,0,0,0,.72-.16,4.65,4.65,0,0,0,1-1.12A6.28,6.28,0,0,0,178,84.9a7.1,7.1,0,0,1,.3,1A7.59,7.59,0,0,1,176.82,92Z" transform="translate(0 -0.24)" fill="#231f20" opacity="0.2"/><path d="M179.77,85.62a0,0,0,0,0,0,0A7.5,7.5,0,0,0,176,80.53a13.64,13.64,0,0,0-11.14-.48,9.41,9.41,0,0,0-6.47,11,7.86,7.86,0,0,0,.4,1.35,5.19,5.19,0,0,0,2.44,2.82,3.94,3.94,0,0,0,1.78.4,5.11,5.11,0,0,0,1.65-.28l.16.21.12.15a.86.86,0,0,0,.13.14,4.48,4.48,0,0,0,1.24.93l.17.08.09,0,.09,0,.35.13c.12,0,.24.07.36.11l.36.09c.25,0,.49.09.73.11l.36,0h.37a6.29,6.29,0,0,0,1.48-.14,5.54,5.54,0,0,0,1.44-.57,4.73,4.73,0,0,0,1.82-2.1,4.35,4.35,0,0,0,4-1.68,9.48,9.48,0,0,0,.82-1.27A9,9,0,0,0,179.77,85.62Zm-3,6.36a2.8,2.8,0,0,1-2.41,1.11,7.85,7.85,0,0,0,.12-1.52,1.48,1.48,0,0,0,0-.21,11.11,11.11,0,0,0-.1-1.16,7.47,7.47,0,0,0-.32-1.32c0,.42,0,.83-.09,1.24s-.12.93-.21,1.38a8.48,8.48,0,0,1-.81,2.35,4.54,4.54,0,0,1-.68.93,3.66,3.66,0,0,1-.87.65,4,4,0,0,1-1,.36,5.51,5.51,0,0,1-1.16.09H169l-.3,0c-.21,0-.4,0-.59-.07s-.19,0-.29-.06l-.28-.07a4.81,4.81,0,0,1-.53-.2,3.22,3.22,0,0,1-.93-.58,3.43,3.43,0,0,1-.69-.86,6,6,0,0,1-.7-2.32,11.74,11.74,0,0,1,0-2.14c0-.16,0-.32,0-.49a7.27,7.27,0,0,0-.47,1.28,7.65,7.65,0,0,0-.25,1.35,5.79,5.79,0,0,0,0,.72c0,.23,0,.46,0,.69a6.25,6.25,0,0,0,.17.84,3,3,0,0,1-2.14-.09c-1.7-.86-2.28-3.15-2.18-5.19a8.12,8.12,0,0,1,.37-2.09,8.56,8.56,0,0,1,5.32-5.12,12.1,12.1,0,0,1,9.86.39A5.9,5.9,0,0,1,178,84.9a7.1,7.1,0,0,1,.3,1A7.59,7.59,0,0,1,176.82,92Z" transform="translate(0 -0.24)" fill="#2f1d45"/><path d="M111.31,92a2.81,2.81,0,0,0,2.42,1.11.5.5,0,0,1,0-.12,7.39,7.39,0,0,1-.1-1.4v-.21a8.93,8.93,0,0,1,.11-1.16v-.09a8.49,8.49,0,0,1,.3-1.23c0,.42,0,.83.1,1.24h0q.08.7.21,1.38a8.17,8.17,0,0,0,.81,2.35,4.5,4.5,0,0,0,.67.93,3.66,3.66,0,0,0,.87.65,4.27,4.27,0,0,0,1,.36,5.56,5.56,0,0,0,1.16.09h.3l.3,0c.2,0,.39,0,.59-.07a2.3,2.3,0,0,0,.28-.06l.28-.07a4.81,4.81,0,0,0,.53-.2,3.1,3.1,0,0,0,.93-.58,3.47,3.47,0,0,0,.7-.86,5.82,5.82,0,0,0,.69-2.32,12.7,12.7,0,0,0,.05-2.14h0l0-.49a8.16,8.16,0,0,1,.47,1.28,9.79,9.79,0,0,1,.2,1h0c0,.12,0,.25,0,.38s0,.48,0,.72a5.32,5.32,0,0,1,0,.69,4.62,4.62,0,0,1-.11.63v0s0,.11,0,.17a3,3,0,0,0,2.13-.09c1.7-.86,2.28-3.15,2.19-5.19h0a8.12,8.12,0,0,0-.37-2.09,8.61,8.61,0,0,0-5.32-5.12,12.1,12.1,0,0,0-9.86.39,5.82,5.82,0,0,0-2.69,3.06h0a6,6,0,0,0-.3,1A7.62,7.62,0,0,0,111.31,92Z" transform="translate(0 -0.24)" fill="#d4916e"/><path d="M114.48,91.29c-.13-.39-.25-.78-.35-1.17q.08.7.21,1.38a8.17,8.17,0,0,0,.81,2.35,4.5,4.5,0,0,0,.67.93,3.66,3.66,0,0,0,.87.65,4.27,4.27,0,0,0,1,.36,5.56,5.56,0,0,0,1.16.09h.3l.3,0c.2,0,.39,0,.59-.07a2.3,2.3,0,0,0,.28-.06l.28-.07a4.81,4.81,0,0,0,.53-.2,3.1,3.1,0,0,0,.93-.58,3.47,3.47,0,0,0,.7-.86,5.82,5.82,0,0,0,.69-2.32,12.7,12.7,0,0,0,.05-2.14c-.5,1.83-.93,3.4-2.8,4.26-1.65.75-4.33.37-5.48-1A5.52,5.52,0,0,1,114.48,91.29Z" transform="translate(0 -0.24)" fill="#231f20" opacity="0.2"/><path d="M124.06,93.94a3,3,0,0,0,2.13-.09c1.7-.86,2.28-3.15,2.19-5.19a7.11,7.11,0,0,1-.64,1.56,4.64,4.64,0,0,1-1.47,1.61,2.28,2.28,0,0,1-.51.21,1.46,1.46,0,0,1-1,0,1,1,0,0,1-.5-.43,2.29,2.29,0,0,1-.09-.28c0,.12,0,.25,0,.38s0,.48,0,.72a5.32,5.32,0,0,1,0,.69,4.62,4.62,0,0,1-.11.63v0S124.07,93.88,124.06,93.94Z" transform="translate(0 -0.24)" fill="#231f20" opacity="0.2"/><path d="M111.31,92a2.81,2.81,0,0,0,2.42,1.11.5.5,0,0,1,0-.12,7.39,7.39,0,0,1-.1-1.4v-.21a8.93,8.93,0,0,1,.11-1.16v-.09a2.51,2.51,0,0,0-.11.23,1,1,0,0,1-.9.56,1.49,1.49,0,0,1-.72-.16,4.49,4.49,0,0,1-1-1.12,6.27,6.27,0,0,1-.85-4.72,6,6,0,0,0-.3,1A7.62,7.62,0,0,0,111.31,92Z" transform="translate(0 -0.24)" fill="#231f20" opacity="0.2"/><path d="M109.3,91.62a9.48,9.48,0,0,0,.82,1.27,4.38,4.38,0,0,0,4,1.68,4.67,4.67,0,0,0,1.82,2.1,5.48,5.48,0,0,0,1.43.57,6.32,6.32,0,0,0,1.49.14h.36l.37,0c.24,0,.48-.07.72-.11l.36-.09c.12,0,.24-.06.36-.11l.36-.13.09,0,.08,0,.17-.08a4.38,4.38,0,0,0,1.25-.93l.13-.14.12-.15c.06-.07.1-.14.15-.21a5.15,5.15,0,0,0,1.65.28,4,4,0,0,0,1.79-.4,5.27,5.27,0,0,0,2.44-2.82,7.86,7.86,0,0,0,.4-1.35,9.43,9.43,0,0,0-6.48-11,13.62,13.62,0,0,0-11.13.48,7.48,7.48,0,0,0-3.1,3.23,7.91,7.91,0,0,0-.63,1.83v0A9,9,0,0,0,109.3,91.62Zm.54-5.7a6,6,0,0,1,.3-1,5.86,5.86,0,0,1,2.69-3.06,12.1,12.1,0,0,1,9.86-.39A8.61,8.61,0,0,1,128,86.57a8.12,8.12,0,0,1,.37,2.09c.09,2-.48,4.33-2.19,5.19a3,3,0,0,1-2.13.09,5,5,0,0,0,.16-.84,5.32,5.32,0,0,0,0-.69q0-.36,0-.72a8.68,8.68,0,0,0-.25-1.35,8.16,8.16,0,0,0-.47-1.28l0,.49a12.7,12.7,0,0,1-.05,2.14A5.82,5.82,0,0,1,122.8,94a3.47,3.47,0,0,1-.7.86,3.1,3.1,0,0,1-.93.58,4.81,4.81,0,0,1-.53.2l-.28.07a2.3,2.3,0,0,1-.28.06c-.2,0-.39.06-.59.07l-.3,0h-.3a5.56,5.56,0,0,1-1.16-.09,4.27,4.27,0,0,1-1-.36,3.66,3.66,0,0,1-.87-.65,4.5,4.5,0,0,1-.67-.93,8.17,8.17,0,0,1-.81-2.35q-.14-.68-.21-1.38c0-.41-.08-.82-.1-1.24a8.44,8.44,0,0,0-.31,1.32,8.93,8.93,0,0,0-.11,1.16v.21a7.85,7.85,0,0,0,.12,1.52A2.81,2.81,0,0,1,111.31,92,7.62,7.62,0,0,1,109.84,85.92Z" transform="translate(0 -0.24)" fill="#2f1d45"/></g></g></svg>