<svg id="Layer_1" data-name="Layer 1" xmlns="http://www.w3.org/2000/svg" viewBox="0 0 4000 4000"><title>Artboard 3</title><path d="M606.32,3114.64C350.16,3042.28,93.58,2372,319,2086.92s494-296.8,440.48-638.34c-49.73-317.33,194.71-656.17,603.74-642.91s759.31,252.78,1080.62,93.11c547-271.82,1019.89,54.4,934.06,498.36-48.31,249.88,3.73,497.57,108.48,651.87,227.16,334.62,148.3,899.6-84.1,1018.35S940.05,3208.9,606.32,3114.64Z" style="fill:#f0f5ff"/><path d="M732.62,2937.9c-136-67.71-251.94-249.71-185.64-336s126,194.29,185.64,147.78-193.52-245.41-100.08-325,179.64,170.59,239.31,135-346.09-523.1,26.52-656.2c264.82-94.6,72.93,713.93,232,730.27s2.29-204.22,192.23-142.79-15.47,169.34,71.84,233.84,39.52-125.52,158.33-70.47-63.68,243.83-63.68,243.83S1044.23,3093,732.62,2937.9Z" style="fill:#b6d4ff"/><path d="M1153.62,2924a3.87,3.87,0,0,1-2.92-1.33c-127.3-146.22-190.18-381.57-220.51-553.25-32.82-185.79-35.67-339.13-35.69-340.66a3.87,3.87,0,0,1,3.8-3.93h.07a3.86,3.86,0,0,1,3.86,3.8c0,1.53,2.87,154.36,35.6,339.57,30.16,170.67,92.59,404.53,218.71,549.4a3.87,3.87,0,0,1-2.92,6.4Z" style="fill:#679dc9"/><path d="M917.09,2264.1l-68.37-104.26a3.87,3.87,0,0,1,6.47-4.24l61.72,94.11,74.3-120a3.87,3.87,0,1,1,6.58,4.07Z" style="fill:#679dc9"/><path d="M966.28,2522l-70.68-72.44a3.87,3.87,0,0,1,5.54-5.4l63.35,64.93,58.1-107.09a3.87,3.87,0,0,1,6.8,3.69Z" style="fill:#679dc9"/><path d="M1103.89,2934.78a3.85,3.85,0,0,1-1.79-.44c-256.74-134.16-365.28-358.51-366.35-360.76a3.87,3.87,0,1,1,7-3.31c1.06,2.22,108.59,224.3,362.94,357.21a3.87,3.87,0,0,1-1.79,7.3Z" style="fill:#679dc9"/><path d="M1018.19,2918c-21.35,0-43.61-.7-66.25-2.41-172.86-13-288.91-78.17-335.59-188.44a3.87,3.87,0,0,1,7.12-3c57.44,135.68,210.56,174.81,328.9,183.74,119.14,9,227.94-10,244.68-13.06l108.32-335.39a3.87,3.87,0,1,1,7.36,2.37L1203,2901.47l-2.22.45C1199.82,2902.11,1119.37,2918,1018.19,2918Z" style="fill:#679dc9"/><path d="M1265.9,2690.58l-23.2-87.66a3.87,3.87,0,1,1,7.48-2l21.16,79.94,36.6-11a3.87,3.87,0,0,1,2.22,7.41Z" style="fill:#679dc9"/><path d="M1081.76,2819.76,960,2734.43a3.87,3.87,0,1,1,4.44-6.33l111.87,78.38L1100.09,2673a3.87,3.87,0,1,1,7.61,1.36Z" style="fill:#679dc9"/><path d="M828.41,2709.28a3.87,3.87,0,0,1-3.87-3.87V2631.5a3.87,3.87,0,0,1,7.74,0v73.91A3.87,3.87,0,0,1,828.41,2709.28Z" style="fill:#679dc9"/><path d="M907.23,2794a3.68,3.68,0,0,1-.66-.06l-78.83-13.76a3.87,3.87,0,0,1,1.33-7.62l78.83,13.76a3.87,3.87,0,0,1-.67,7.68Z" style="fill:#679dc9"/><path d="M812.6,2890.08a3.86,3.86,0,0,1-3.71-2.8l-17-58.86a3.87,3.87,0,0,1,7.44-2.15l17,58.87a3.86,3.86,0,0,1-2.64,4.78A3.67,3.67,0,0,1,812.6,2890.08Z" style="fill:#679dc9"/><path d="M680.46,2816.4a5.65,5.65,0,0,1-.58,0l-60.55-9.12a3.87,3.87,0,1,1,1.15-7.65L681,2808.7a3.87,3.87,0,0,1-.57,7.7Z" style="fill:#679dc9"/><path d="M3268.38,2960.64c136-67.7,251.93-249.71,185.63-336s-126,194.3-185.63,147.78,193.52-245.41,100.07-325-179.63,170.59-239.3,135,346.09-523.1-26.52-656.2c-264.83-94.6-72.93,713.94-232.05,730.27s-2.28-204.22-192.22-142.79,15.47,169.35-71.85,233.85-39.52-125.53-158.33-70.48S2511.86,2921,2511.86,2921,2956.77,3115.78,3268.38,2960.64Z" style="fill:#b6d4ff"/><path d="M2847.37,2946.78a3.85,3.85,0,0,0,2.92-1.33c127.3-146.23,190.18-381.57,220.51-553.25,32.82-185.79,35.67-339.14,35.69-340.67a3.87,3.87,0,0,0-3.8-3.93h-.07a3.86,3.86,0,0,0-3.86,3.81c0,1.52-2.87,154.35-35.6,339.56-30.16,170.68-92.59,404.54-218.71,549.4a3.87,3.87,0,0,0,2.92,6.41Z" style="fill:#679dc9"/><path d="M3083.9,2286.84l68.37-104.26a3.87,3.87,0,0,0-6.47-4.24l-61.71,94.11-74.31-120a3.87,3.87,0,0,0-6.58,4.07Z" style="fill:#679dc9"/><path d="M3034.71,2544.75l70.68-72.43a3.86,3.86,0,1,0-5.53-5.4l-63.35,64.92-58.11-107.08a3.87,3.87,0,1,0-6.8,3.69Z" style="fill:#679dc9"/><path d="M2897.1,2957.52a3.85,3.85,0,0,0,1.79-.44c256.75-134.16,365.28-358.51,366.35-360.76a3.87,3.87,0,1,0-7-3.31c-1.06,2.23-108.59,224.3-362.94,357.22a3.86,3.86,0,0,0,1.79,7.29Z" style="fill:#679dc9"/><path d="M2982.81,2940.7c21.34,0,43.6-.71,66.24-2.41,172.86-13,288.91-78.18,335.6-188.45a3.87,3.87,0,0,0-7.13-3c-57.44,135.67-210.56,174.8-328.9,183.73-119.14,9-227.94-9.95-244.68-13.06l-108.31-335.39a3.87,3.87,0,0,0-7.37,2.38L2798,2924.22l2.22.44C2801.17,2924.86,2881.62,2940.7,2982.81,2940.7Z" style="fill:#679dc9"/><path d="M2735.09,2713.33l23.2-87.67a3.87,3.87,0,0,0-7.48-2l-21.16,80-36.59-11a3.87,3.87,0,0,0-2.23,7.41Z" style="fill:#679dc9"/><path d="M2919.23,2842.51l121.8-85.33a3.87,3.87,0,0,0-4.44-6.34l-111.87,78.38-23.81-133.53a3.87,3.87,0,1,0-7.62,1.36Z" style="fill:#679dc9"/><path d="M3172.58,2732a3.87,3.87,0,0,0,3.87-3.87v-73.9a3.87,3.87,0,1,0-7.73,0v73.9A3.86,3.86,0,0,0,3172.58,2732Z" style="fill:#679dc9"/><path d="M3093.76,2816.73a3.88,3.88,0,0,0,.67-.06l78.82-13.76a3.87,3.87,0,0,0-1.33-7.62l-78.82,13.76a3.87,3.87,0,0,0,.66,7.68Z" style="fill:#679dc9"/><path d="M3188.39,2912.82a3.86,3.86,0,0,0,3.71-2.79l17-58.87a3.87,3.87,0,1,0-7.43-2.14l-17,58.86a3.87,3.87,0,0,0,2.65,4.79A4,4,0,0,0,3188.39,2912.82Z" style="fill:#679dc9"/><path d="M3320.53,2839.14a3.9,3.9,0,0,0,.59,0l60.54-9.11a3.87,3.87,0,0,0-1.15-7.66l-60.55,9.12a3.87,3.87,0,0,0,.57,7.69Z" style="fill:#679dc9"/><path d="M431.71,3064.62c-136-67.7-251.94-249.71-185.64-336S372,2923,431.71,2876.44s-193.52-245.42-100.08-325,179.64,170.58,239.31,135-346.09-523.09,26.52-656.2c264.82-94.59,72.93,713.94,232,730.27s2.29-204.22,192.23-142.79-15.47,169.35,71.84,233.85,39.52-125.53,158.33-70.48S1188.22,3025,1188.22,3025,743.32,3219.76,431.71,3064.62Z" style="fill:#6fddb5"/><path d="M852.71,3050.76a3.87,3.87,0,0,1-2.92-1.33c-127.3-146.22-190.18-381.57-220.51-553.25-32.82-185.79-35.67-339.14-35.69-340.66a3.87,3.87,0,0,1,3.8-3.93h.07a3.86,3.86,0,0,1,3.86,3.8c0,1.52,2.87,154.36,35.6,339.56,30.16,170.68,92.59,404.54,218.71,549.4a3.87,3.87,0,0,1-2.92,6.41Z" style="fill:#34c68e"/><path d="M616.18,2390.82l-68.37-104.25a3.87,3.87,0,0,1,6.47-4.25L616,2376.43l74.3-120a3.87,3.87,0,0,1,6.58,4.07Z" style="fill:#34c68e"/><path d="M665.37,2648.74l-70.68-72.44a3.87,3.87,0,0,1,5.54-5.4l63.35,64.92,58.1-107.08a3.87,3.87,0,0,1,6.8,3.69Z" style="fill:#34c68e"/><path d="M803,3061.51a3.85,3.85,0,0,1-1.79-.44C544.45,2926.9,435.91,2702.56,434.84,2700.3a3.87,3.87,0,0,1,7-3.31c1.06,2.23,108.59,224.3,363,357.22a3.87,3.87,0,0,1-1.8,7.3Z" style="fill:#34c68e"/><path d="M717.28,3044.68c-21.35,0-43.61-.71-66.24-2.41-172.87-13-288.92-78.18-335.6-188.45a3.87,3.87,0,0,1,7.12-3c57.44,135.68,210.56,174.8,328.9,183.74,119.14,9,227.94-10,244.68-13.06l108.32-335.4a3.87,3.87,0,0,1,7.36,2.38L902.1,3028.2l-2.22.45C898.91,3028.84,818.46,3044.68,717.28,3044.68Z" style="fill:#34c68e"/><path d="M965,2817.31l-23.2-87.67a3.87,3.87,0,1,1,7.48-2l21.16,80,36.6-11a3.87,3.87,0,0,1,2.22,7.41Z" style="fill:#34c68e"/><path d="M780.85,2946.49l-121.8-85.33a3.87,3.87,0,1,1,4.44-6.34l111.87,78.38,23.82-133.53a3.87,3.87,0,0,1,7.61,1.36Z" style="fill:#34c68e"/><path d="M527.5,2836a3.87,3.87,0,0,1-3.87-3.87v-73.9a3.87,3.87,0,0,1,7.74,0v73.9A3.87,3.87,0,0,1,527.5,2836Z" style="fill:#34c68e"/><path d="M606.32,2920.71a4.89,4.89,0,0,1-.66-.05l-78.83-13.76a3.87,3.87,0,0,1,1.33-7.62L607,2913a3.87,3.87,0,0,1-.67,7.68Z" style="fill:#34c68e"/><path d="M511.69,3016.8A3.86,3.86,0,0,1,508,3014l-17-58.86a3.87,3.87,0,0,1,7.44-2.15l17,58.86a3.87,3.87,0,0,1-2.64,4.79A4,4,0,0,1,511.69,3016.8Z" style="fill:#34c68e"/><path d="M379.55,2943.12a3.77,3.77,0,0,1-.58,0L318.42,2934a3.87,3.87,0,0,1,1.15-7.65l60.55,9.11a3.87,3.87,0,0,1-.57,7.69Z" style="fill:#34c68e"/><path d="M3564.81,3064.62c133.35-67.7,247.05-249.71,182-336s-123.53,194.3-182,147.79,189.77-245.42,98.14-325-176.15,170.58-234.66,135,339.37-523.09-26-656.2c-259.68-94.59-71.51,713.94-227.54,730.27s-2.24-204.22-188.49-142.79,15.17,169.35-70.46,233.85-38.74-125.53-155.25-70.48S2823,3025,2823,3025,3259.25,3219.76,3564.81,3064.62Z" style="fill:#6fddb5"/><path d="M3152,3050.76a3.87,3.87,0,0,1-2.94-6.38c123.69-144.89,184.91-378.81,214.49-549.53,32.08-185.2,34.86-337.94,34.88-339.46a3.93,3.93,0,0,1,3.93-3.8,3.86,3.86,0,0,1,3.81,3.92c0,1.53-2.82,154.87-35,340.66-29.74,171.67-91.4,407-216.23,553.23A3.84,3.84,0,0,1,3152,3050.76Z" style="fill:#34c68e"/><path d="M3383.91,2390.92l-79.2-130.44a3.87,3.87,0,1,1,6.61-4l72.78,119.86,60.44-94a3.87,3.87,0,1,1,6.5,4.19Z" style="fill:#34c68e"/><path d="M3335.66,2648.82l-61.94-116.42a3.87,3.87,0,1,1,6.83-3.63l56.92,107,62-64.82a3.87,3.87,0,1,1,5.58,5.35Z" style="fill:#34c68e"/><path d="M3200.74,3061.51a3.87,3.87,0,0,1-1.82-7.29c249.52-133,354.85-355,355.88-357.2a3.87,3.87,0,0,1,7,3.26c-1.05,2.25-107.48,226.6-359.26,360.77A3.84,3.84,0,0,1,3200.74,3061.51Z" style="fill:#34c68e"/><path d="M3284.79,3044.68c-99.25,0-178.14-15.84-179.09-16l-2.23-.45-.68-2.17-106.9-337.57a3.87,3.87,0,0,1,7.37-2.34l106.21,335.39c16.56,3.13,123.14,22,239.85,13.05,116-8.94,266.12-48.06,322.44-183.72a3.87,3.87,0,1,1,7.15,3c-45.79,110.28-159.61,175.45-329.15,188.47C3327.56,3044,3305.71,3044.68,3284.79,3044.68Z" style="fill:#34c68e"/><path d="M3041.94,2817.34l-43.5-13.29a3.87,3.87,0,1,1,2.26-7.4l35.78,10.93,20.74-79.9a3.87,3.87,0,0,1,7.49,1.94Z" style="fill:#34c68e"/><path d="M3222.39,2946.56,3196.93,2801a3.87,3.87,0,1,1,7.62-1.33l23.34,133.44,109.57-78.29a3.87,3.87,0,0,1,4.49,6.3Z" style="fill:#34c68e"/><path d="M3470.88,2836a3.87,3.87,0,0,1-3.87-3.87v-73.9a3.87,3.87,0,0,1,7.74,0v73.9A3.87,3.87,0,0,1,3470.88,2836Z" style="fill:#34c68e"/><path d="M3393.59,2920.71a3.86,3.86,0,0,1-.68-7.67l77.3-13.76a3.86,3.86,0,0,1,1.35,7.61l-77.29,13.76A4,4,0,0,1,3393.59,2920.71Z" style="fill:#34c68e"/><path d="M3486.38,3016.8a3.84,3.84,0,0,1-3.72-4.92l16.67-58.86a3.87,3.87,0,1,1,7.44,2.11L3490.1,3014A3.86,3.86,0,0,1,3486.38,3016.8Z" style="fill:#34c68e"/><path d="M3616,2943.12a3.87,3.87,0,0,1-.58-7.69l59.37-9.11a3.87,3.87,0,0,1,1.17,7.65l-59.37,9.11A4,4,0,0,1,3616,2943.12Z" style="fill:#34c68e"/><ellipse cx="2016.47" cy="3098.1" rx="1538.98" ry="206.31" style="fill:#9cb9e8"/><ellipse cx="1325.61" cy="3075.58" rx="317.48" ry="53.91" style="fill:#679dc9"/><ellipse cx="2087.26" cy="3059.18" rx="356.58" ry="55.46" style="fill:#679dc9"/><ellipse cx="2671.18" cy="3018.83" rx="317.78" ry="40.35" style="fill:#679dc9"/><path d="M1071.1,2987.22l-18.24,101.11,227.08,18.23s11.6-26.52-16.58-36.46-104.42-39.78-119.33-82.88Z" style="fill:#f0f5ff"/><path d="M1420.29,2954.07l-18.23,101.11,227.07,18.23s11.61-26.52-16.57-36.46-104.42-39.78-119.34-82.88Z" style="fill:#f0f5ff"/><path d="M1136.69,1956.63s-42,102.4-47,180.3,0,465.75,0,465.75l-46.41,411.06h140.89s81.21-435.92,84.53-493.93,14.91-288.4,14.91-288.4,54.7,310,59.68,348.07,33.15,348.07,59.67,406.08c116-11.6,122.65-18.23,122.65-18.23s-34.7-372.51-38.12-475.7c-2.1-63.36-95.06-566.14-95.06-566.14Z" style="fill:#0f1e60"/><path d="M1124.54,1955.67v35.84s217.14,7.89,289.23-8.7l4.85-201.91,155.64,28.26-4.22-54.29s-100.74-15.19-115.66-119,4.14-193.38-121.41-201.67c0,0-105.67-76.24-176.94-96.13s-144.2,19.89-130.94,74.59S1122.88,1532,1122.88,1532,1059.81,1918.32,1124.54,1955.67Z" style="fill:#5167eb"/><path d="M1415.31,1922.78h0a3.86,3.86,0,0,1-3.83-3.9l3.32-362.55a3.86,3.86,0,0,1,3.87-3.83h0a3.87,3.87,0,0,1,3.83,3.91L1419.18,1919A3.86,3.86,0,0,1,1415.31,1922.78Z" style="fill:#2e469e"/><ellipse cx="2100.25" cy="1967.02" rx="311.61" ry="41.53" style="fill:#0fb9b1"/><path d="M2322.2,1692.56c-10.12,33.78-35.78,62.51-59.69,87.43-20.59,21.46-39.82,39.67-50,67.37-1,2.81-2,5.72-2.82,8.75-8.09,29-3.69,61-1.28,90.58H2038.86l-32.4-55.34-24.72-49c-13.94,24.68,34.65,90.35,17.3,112.52a36,36,0,0,1-4.78,5.07c-27.1,23.33-68.3-24.47-80.58-75.44-19.12-79.36,52-126.89,79.71-142.06,6.47-3.55,10.57-5.33,10.57-5.33l22.57-7.8A189.86,189.86,0,0,1,2098.4,1719a156.47,156.47,0,0,1,36.26,6.16c10.76,3.23,20.71,10.29,31.47,12.73,6.15,1.39,12.45.8,18.65,0,18.28-2.35,35.58-19,47.95-33.12,17.79-20.31,28.78-47.7,48.95-65.42,4.75-4.18,10.23-7.76,16.28-8.44.54-.06,1.06-.1,1.57-.11C2322.53,1630.18,2327.34,1675.41,2322.2,1692.56Z" style="fill:#d4916e"/><path d="M2322.2,1692.56c-10.12,33.78-35.78,62.51-59.69,87.43-20.59,21.46-39.82,39.67-50,67.37,3.58-21.56,10.65-42.43,24.12-59.38,6.56-8.24,14.45-15.31,21.87-22.79a270.82,270.82,0,0,0,45.25-60.58c3.36-6.14,6.51-12.48,8.09-19.29,1.71-7.39,1.52-15.08.91-22.63s-1.71-15.49-5.12-22.41c-1.75-3.57-5.37-6.55-8.08-9.5C2322.53,1630.18,2327.34,1675.41,2322.2,1692.56Z" style="fill:#333;opacity:0.2"/><path d="M2162.62,1863.74c0,39-34.13,70.68-76.23,70.68a81.27,81.27,0,0,1-27.44-4.72c-28.55-10.21-48.8-35.89-48.8-66,0-39,34.13-70.67,76.24-70.67a80.62,80.62,0,0,1,36.19,8.46C2146.43,1813.47,2162.62,1836.85,2162.62,1863.74Z" style="fill:#fcb086"/><path d="M2018.92,1867.5c0,26.88,16.19,50.25,40,62.21-28.56-10.22-48.81-35.9-48.81-66,0-39,34.13-70.67,76.24-70.67a80.59,80.59,0,0,1,36.19,8.46,81.44,81.44,0,0,0-27.42-4.71C2053.05,1796.82,2018.92,1828.46,2018.92,1867.5Z" style="fill:#333;opacity:0.2"/><circle cx="2111.85" cy="1921.58" r="124.31" transform="translate(-740.21 2056.12) rotate(-45)" style="fill:#e5772c"/><circle cx="2086.99" cy="1923.24" r="124.31" transform="translate(-748.67 2039.03) rotate(-45)" style="fill:#ffb07b"/><path d="M2087,2027.48a104.25,104.25,0,1,1,104.24-104.24A104.36,104.36,0,0,1,2087,2027.48Zm0-200.75a96.51,96.51,0,1,0,96.51,96.51A96.61,96.61,0,0,0,2087,1826.73Z" style="fill:#f93"/><polygon points="2193.72 1859.5 2216.31 1854.22 2226.29 1872.96 2202.3 1876.79 2193.72 1859.5" style="fill:#ffb07b"/><polygon points="2201.46 1900.38 2232.84 1893.06 2236.16 1913.5 2210.03 1917.67 2201.46 1900.38" style="fill:#ffb07b"/><path d="M2082.41,2011v-21.62c-12.41-.22-25.26-4.07-32.75-9.42l5.14-14.34a57,57,0,0,0,30.82,9.2c15.19,0,25.47-8.77,25.47-21,0-11.77-8.35-19-24.19-25.47-21.83-8.56-35.31-18.41-35.31-37,0-17.77,12.62-31.25,32.32-34.46v-21.62h13.27V1856c12.84.43,21.62,3.86,27.82,7.49l-5.35,14.13a51.7,51.7,0,0,0-27-7.28c-16.48,0-22.68,9.85-22.68,18.41,0,11.13,7.91,16.7,26.54,24.4,22,9,33.17,20.12,33.17,39.17,0,16.91-11.77,32.75-33.82,36.39V2011Z" style="fill:#e5772c"/><circle cx="2195.05" cy="1501.29" r="54.38" transform="translate(-418.65 1991.85) rotate(-45)" style="fill:#d4916e"/><path d="M2249.44,1501.28a54.4,54.4,0,0,1-81.54,47.14,54.39,54.39,0,0,0,45.68-98.27A54.38,54.38,0,0,1,2249.44,1501.28Z" style="fill:#231f20;opacity:0.1"/><circle cx="2195.05" cy="1501.29" r="34.28" transform="translate(361.54 3427.52) rotate(-80.78)" style="fill:#fcb086"/><path d="M2229.34,1501.28a34.29,34.29,0,0,1-52.93,28.78,34.28,34.28,0,0,0,28.65-61.56A34.29,34.29,0,0,1,2229.34,1501.28Z" style="fill:#231f20;opacity:0.1"/><circle cx="1978.18" cy="1501.29" r="54.38" transform="translate(-292.01 494.65) rotate(-13.28)" style="fill:#d4916e"/><path d="M1923.79,1501.28a54.4,54.4,0,0,0,81.54,47.14,54.39,54.39,0,0,1-45.68-98.27A54.39,54.39,0,0,0,1923.79,1501.28Z" style="fill:#231f20;opacity:0.1"/><circle cx="1978.18" cy="1501.29" r="34.28" transform="translate(-292.01 494.65) rotate(-13.28)" style="fill:#fcb086"/><path d="M1943.89,1501.28a34.29,34.29,0,0,0,52.93,28.78,34.28,34.28,0,0,1-28.65-61.56A34.29,34.29,0,0,0,1943.89,1501.28Z" style="fill:#231f20;opacity:0.1"/><path d="M2232.62,1691.18a112.21,112.21,0,0,1-18.76,20.76c-48.72,42.21-127.25,43.17-127.25,43.17s-78.52-1-127.24-43.17a112.21,112.21,0,0,1-18.76-20.76c-10.67-15.42-13.49-35.66-7.82-53.94,15.92-51.47,49.74-165.62,153.82-165.62,105.77,0,137.91,114.15,153.83,165.62C2246.11,1655.52,2243.29,1675.76,2232.62,1691.18Z" style="fill:#d4916e"/><path d="M2162.38,1740.79a262.33,262.33,0,0,1-75.77,14.32s-102.59-1.25-146-63.94c-10.67-15.42-13.5-35.65-7.84-53.94,14.18-45.8,42.52-141.26,122-161.7-69.41,27-95.35,114.28-108.69,157.43-5.66,18.29-2.85,38.52,7.82,53.94,43.42,62.69,146,63.94,146,63.94A262.55,262.55,0,0,0,2162.38,1740.79Z" style="fill:#231f20;opacity:0.1"/><ellipse cx="2032.64" cy="1568.77" rx="22.76" ry="31.09" style="fill:#2f1d45"/><ellipse cx="2039.39" cy="1564.11" rx="7.72" ry="9.55" style="fill:#f8fff8"/><ellipse cx="2140.59" cy="1568.77" rx="22.76" ry="31.09" style="fill:#2f1d45"/><ellipse cx="2133.84" cy="1564.11" rx="7.72" ry="9.55" style="fill:#f8fff8"/><path d="M2213.86,1711.94c-48.72,42.21-127.25,43.17-127.25,43.17s-78.52-1-127.24-43.17c0-.3,0-.62,0-.93,3.47-115.47,127.22-101.91,127.22-101.91s123.76-13.56,127.23,101.91C2213.85,1711.32,2213.86,1711.64,2213.86,1711.94Z" style="fill:#fcb086"/><path d="M2114.15,1637.24c-8.12-9.48-27.54-9.48-27.54-9.48s-19.41,0-27.53,9.48c0,0-.26,16.64,27.53,25.15C2114.41,1653.88,2114.15,1637.24,2114.15,1637.24Z" style="fill:#2f1d45"/><path d="M2102.36,1686.3a110,110,0,0,0-30.65-.52c-15.65,2-24.89,6.79-24.89,6.79.92,6.12,3.25,14.33,9.1,20.68l.21.22c6.27,6.66,15.43,10,27.24,10h6.49c11.81,0,21-3.38,27.24-10l.21-.22c5.85-6.35,8.18-14.56,9.1-20.68A125.12,125.12,0,0,0,2102.36,1686.3Z" style="fill:#2f1d45"/><path d="M2117.31,1713.24l-.21.23c-6.27,6.66-15.43,10-27.24,10h-6.49c-11.81,0-21-3.37-27.24-10l-.21-.23.21-.22c6.27-6.66,15.43-10,27.24-10h6.49c11.81,0,21,3.38,27.24,10Z" style="fill:#ff4b8c"/><circle cx="1516.78" cy="1867.2" r="124.31" transform="translate(-876.06 1619.42) rotate(-45)" style="fill:#e5772c"/><circle cx="1541.64" cy="1868.86" r="124.31" transform="translate(-869.95 1637.48) rotate(-45)" style="fill:#ffb07b"/><path d="M1541.64,1973.11a104.25,104.25,0,1,1,104.25-104.25A104.36,104.36,0,0,1,1541.64,1973.11Zm0-200.76a96.51,96.51,0,1,0,96.51,96.51A96.61,96.61,0,0,0,1541.64,1772.35Z" style="fill:#f93"/><polygon points="1434.91 1805.12 1412.32 1799.85 1402.34 1818.58 1426.33 1822.41 1434.91 1805.12" style="fill:#ffb07b"/><polygon points="1427.17 1846.01 1395.79 1838.68 1392.47 1859.13 1418.6 1863.3 1427.17 1846.01" style="fill:#ffb07b"/><path d="M1531.66,1956.63V1935c-12.41-.21-25.25-4.06-32.74-9.41l5.13-14.34a57.15,57.15,0,0,0,30.83,9.2c15.19,0,25.46-8.78,25.46-21,0-11.77-8.34-19-24.18-25.47-21.83-8.56-35.32-18.41-35.32-37,0-17.76,12.63-31.25,32.32-34.46V1780.9h13.27v20.77c12.85.42,21.62,3.85,27.83,7.49l-5.35,14.12a51.85,51.85,0,0,0-27-7.27c-16.48,0-22.69,9.84-22.69,18.4,0,11.14,7.92,16.7,26.54,24.41,22,9,33.18,20.12,33.18,39.16,0,16.92-11.77,32.75-33.82,36.39v22.26Z" style="fill:#e5772c"/><path d="M2047.76,1802.24,2101,1771l86.85-5.27,3.31,31.59s-34,9.85-55.52,19.8-42.27,33.15-53,36.46-12.43-7.55-.25-20.12c4.93-5.08,34.23-36.14,34.23-36.14S2053.56,1803.16,2047.76,1802.24Z" style="fill:#ef735b"/><path d="M2589.76,2894.4,2608,2995.51l-227.07,18.23s-11.61-26.52,16.57-36.46,104.42-39.78,119.34-82.88Z" style="fill:#f0f5ff"/><path d="M2972.64,2927.55l18.23,101.11-227.07,18.23s-11.61-26.52,16.57-36.46,104.42-39.78,119.34-82.88Z" style="fill:#f0f5ff"/><path d="M2610.75,1961.79s-95,389-119.34,561.33-15.47,386.75,0,393.38,77.35,19.89,101.66,0,43.1-400,43.1-400l91-285.08s27,324.86,49.22,400,76.69,302.77,95.86,311.61,98.72-6.63,105.35-24.31-63.66-408.49-88.18-465,19.67-290.79,17.46-350.46S2845.34,1911,2845.34,1911Z" style="fill:#0f1e60"/><path d="M2566.55,1235.38s23.78-94.48,140.9-21.55,172.92,130.94,237,119.89c0,0-19.46,50.83-55,39.78,0,0,172.16,81.77,205.31,187.85S2983.15,1799,2834.52,1747.58,2415.72,1310,2566.55,1235.38Z" style="fill:#0f1e60"/><path d="M2170.41,1760.8s13.26-13.26,49.73-19.89,222.1-76.24,222.1-76.24,114.37-172.2,184-188,140.89-20.81,194.76,2.4-6.81,164.16,24.36,268.55,54.37,182.29,39.45,192.23-248.62,56.36-293.37,11.6c-24.92-24.91,25.28-118.53,2.61-186.24-16.18-48.3-19.68-83.93-19.68-83.93s-77.26,88.26-123.67,101.52-256.17,29.93-267.77,26.61C2181.25,1782.85,2170.41,1760.8,2170.41,1760.8Z" style="fill:#5167eb"/><path d="M2576.5,1273.5s-19.89,200.56,61.33,144.2l6.59,76.25s14.95,21.54,58,0c20.28-10.14,12.86-38.84,12.86-38.84l-29.44-98.74s26.52-36.46,16.58-46.41-31.49,10-31.49,10-25.48-5-66.3-46.41C2586.06,1254.61,2576.5,1273.5,2576.5,1273.5Z" style="fill:#ef735b"/><path d="M2725.66,1747.58l57.36,9.47s24.78,12.12,45.63,7.53c0,0,27.39,12.55,12,32.78s-102.72,59.82-101.23,45.75c.75-7.07,28.74-12.19,27.64-21.75s-31.68,24.84-39.66,12.81c-4.31-6.51,31.81-22,30.18-28.38s-40.46,28.76-45,16,38-21.85,37.31-34c0,0-40.94,20.86-42.36,13.21s50.58-30.6,50.58-30.6S2711.35,1761.28,2725.66,1747.58Z" style="fill:#ef735b"/><path d="M1363.22,1852.41a3.89,3.89,0,0,1-1.42-.27c-1.35-.54-136.3-53.38-225.15-54.45l-5.22-.07,1.58-5c.51-1.61,51-162.13,37.24-235.57a3.87,3.87,0,1,1,7.6-1.42c13,68.85-27.3,206.2-35.94,234.41,90.21,3,221.39,54.34,222.73,54.87a3.87,3.87,0,0,1-1.42,7.47Z" style="fill:#2e469e"/><path d="M1183.94,1915.6c-51.2,0-78.91-4.73-79.41-4.81a3.87,3.87,0,0,1,1.35-7.62c.9.16,92.44,15.71,252.27-10.58a3.87,3.87,0,1,1,1.25,7.63C1286,1912.3,1226.75,1915.6,1183.94,1915.6Z" style="fill:#2e469e"/><path d="M1449.1,1823.41l-56.36,14.27s-23.67,14.17-44.83,11.35c0,0-26.23,14.82-9.19,33.67s107.4,51,104.73,37.06c-1.34-7-29.66-9.72-29.37-19.34s33.66,22.08,40.59,9.42c3.75-6.85-33.54-19.27-32.46-25.73s42.74,25.24,46.23,12.09-39.69-18.57-40-30.75c0,0,42.55,17.33,43.32,9.59s-53-26.22-53-26.22S1464.51,1835.86,1449.1,1823.41Z" style="fill:#ef735b"/><path d="M2828.65,1764.58l49.51-73.39s-102.76-96.14-114.36-117.68,5-112.71,57.18-94.48,163.26,218.79,163.26,218.79-30.34,62.73-143.6,99.54C2840.64,1797.36,2850.41,1776.64,2828.65,1764.58Z" style="fill:#5167eb"/><path d="M2833.41,1658.17a3.81,3.81,0,0,1-2.48-.9c-2.36-2-57.93-48.68-70.75-82.39a3.87,3.87,0,0,1,7.23-2.75c12.1,31.84,67.92,78.74,68.48,79.21a3.86,3.86,0,0,1-2.48,6.83Z" style="fill:#2e469e"/><path d="M2574.35,1685.11a3.87,3.87,0,0,1-3.85-3.48c-.28-2.79-6.41-68.83,29.24-125.65a3.87,3.87,0,1,1,6.55,4.11c-34.2,54.52-28.16,120.11-28.09,120.77a3.87,3.87,0,0,1-3.47,4.23Z" style="fill:#2e469e"/><path d="M2421.3,3019.37c-10.48,30.28-40.5,50.74-74.3,50.74H1832.36c-33.8,0-63.78-20.46-74.3-50.74-44.82-129.1-156.75-470.75-143.75-626.92,9.9-119.31,94.25-224.08,158.06-287.32,19-18.83,36.2-34,49.08-44.74a81.05,81.05,0,0,1,51.9-18.57h432.7a81,81,0,0,1,51.86,18.57c7.5,6.26,16.47,14,26.41,23.2,64.4,59,169.63,174.73,180.77,308.86C2578.05,2548.62,2466.12,2890.27,2421.3,3019.37Z" style="fill:#bdf"/><path d="M2430.66,3021.25l-11-3.81c47.39-136.53,156.24-470.71,143.46-624.51-12.62-151.9-147.63-280-205.09-328.08a75.08,75.08,0,0,0-48.17-17.22H2192.49V2036H2309.9a86.71,86.71,0,0,1,55.61,19.93c58.58,49,196.23,179.76,209.22,336C2587.69,2548,2478.29,2884,2430.66,3021.25Z" style="fill:#cce0ff"/><path d="M2384.32,2083.59c-55.15,26.11-187.22,44.52-341.38,44.52-106.9,0-203.2-8.86-270.57-23,19-18.83,36.2-34,49.08-44.74a81.05,81.05,0,0,1,51.9-18.57h432.7a81,81,0,0,1,51.86,18.57C2365.41,2066.65,2374.38,2074.43,2384.32,2083.59Z" style="fill:#86b3e0"/><path d="M1756.45,3021.25C1708.81,2884,1599.42,2548,1612.38,2392c13-156.25,150.63-287,209.21-336a86.76,86.76,0,0,1,55.62-19.93v11.61a75.12,75.12,0,0,0-48.18,17.22c-57.46,48.05-192.46,176.19-205.09,328.08-12.78,153.8,96.07,488,143.47,624.51Z" style="fill:#71abff"/><polygon points="1941.13 1967.02 2268.21 1967.02 2268.21 2024.77 1930.08 2024.77 1941.13 1967.02" style="fill:#0fb9b1"/><path d="M2721.43,2232.12l-10.35-84,3.51,4.64h0a182.44,182.44,0,0,1-66.86-51.56,175.46,175.46,0,0,1-22.55-35.76,170.37,170.37,0,0,1-13-40.07,3.06,3.06,0,0,1,6-1.26v0a163.63,163.63,0,0,0,13.74,38,166.79,166.79,0,0,0,22.61,33.35c17.64,20.24,39.94,36.61,64.55,46.55h0l3.12,1.36.4,3.29,10.35,84a5.8,5.8,0,0,1-11.51,1.42Z" style="fill:#354db5"/><ellipse cx="2104.75" cy="2999.77" rx="282.99" ry="35.91" style="fill:#679dc9"/><ellipse cx="1527.85" cy="3175.77" rx="202.83" ry="52.94" style="fill:#679dc9"/><path d="M2411.86,1967v78.39c0,22.93-139.5,41.5-311.6,41.5s-311.6-18.57-311.6-41.5V1967H1793c24.67,19.68,152.88,34.65,307.31,34.65s282.63-15,307.31-34.65Z" style="fill:#0aa599"/><path d="M2252.73,1966.77a10.9,10.9,0,0,1-10.85,11.59H1960.25a11.27,11.27,0,0,1-11.15-8.51,10.78,10.78,0,0,1,3-10c1.7-1.7,8.14-3.89,10.62-4.16,1.31,4.53-2.77,8.88,6.2,8.88h260.51a7.28,7.28,0,0,0,6-2.8c1.45-2.17.79-3.93.79-6.08l5.13.95C2247.12,1956.62,2252.35,1961,2252.73,1966.77Z" style="fill:#0aa599"/><path d="M2060.48,2006.07c-197.41,0-269.9-34-273.09-35.57a3.86,3.86,0,1,1,3.38-7c.82.39,85.25,39.75,313.77,34.24,228.75-5.52,301.28-34.06,302-34.34a3.86,3.86,0,0,1,2.93,7.15c-2.92,1.2-74,29.36-304.73,34.92Q2081.65,2006.08,2060.48,2006.07Z" style="fill:#5ff2e7"/><path d="M1093.05,1460.67s-39.78,23.68-58,73.17-41.43,337.44-14.91,358.38,312.85,11.29,334.16,1.71c0,0-23.33-17.88-6.37-44.9,0,0-110.66-40.28-215.08-48.57C1127.85,1752.39,1252.16,1472.28,1093.05,1460.67Z" style="fill:#5167eb"/><path d="M1613.26,1815.38c8.52,6.63,31.79-4.25,31.79-4.25s-34.62,13.56-21.61,19.16,27.35-6.88,27.35-6.88-28,21.58-19.36,24.59,25.16-11.08,25.16-11.08-8.29,16.58-5,17.41,22.38-10.78,22.38-10.78-14.09-50.55-19.07-49.72S1604.73,1808.75,1613.26,1815.38Z" style="fill:#ef735b"/><path d="M2197.59,2950.86c-25.31-7.19-59.27-11.6-96.63-11.6s-71.32,4.41-96.63,11.6h-45v31.49c0,23.8,63.41,43.1,141.63,43.1s141.63-19.3,141.63-43.1v-31.49Z" style="fill:#e5772c"/><ellipse cx="2100.96" cy="2950.86" rx="141.63" ry="43.09" style="fill:#ffb07b"/><path d="M2101,2988.74c-56.06,0-115.65-13.27-115.65-37.88S2044.9,2913,2101,2913s115.65,13.27,115.65,37.88S2157,2988.74,2101,2988.74Zm0-68c-63.59,0-107.91,15.89-107.91,30.15S2037.37,2981,2101,2981s107.92-15.89,107.92-30.15S2164.56,2920.71,2101,2920.71Z" style="fill:#f93"/><path d="M2013.05,2951.21l20.91-.32c-.59-3.42,2.36-7,7.16-9.24l14.57,1.19c-4.66,2.25-8,5.41-7.3,8.71.9,4.15,10.07,6.82,22.06,6.67,11.65-.15,18.52-2.53,24.27-7,7.77-6.28,17.37-10.3,36.77-10.65,18.72-.34,33.33,3.08,37.12,8.69l23.07-.35.13,3.81-22.06.31c-.22,3.62-3.65,6.12-7.32,7.89l-14.75-1.31c2.54-1.28,7.22-3.79,6.91-7.64-.39-4.69-10.89-6.3-19.85-6.16-11.56.19-17,2.53-24.21,7.87-8.21,6.19-18.85,9.34-37.66,9.55-16.51.18-32.53-2.79-37.43-8.68l-21.44.31Z" style="fill:#e5772c"/><path d="M2196.12,2908.35c-25.3-7.19-59.27-11.6-96.63-11.6s-71.32,4.41-96.63,11.6h-45v31.49c0,23.81,63.41,43.1,141.63,43.1s141.63-19.29,141.63-43.1v-31.49Z" style="fill:#e5772c"/><ellipse cx="2099.49" cy="2908.35" rx="141.63" ry="43.09" style="fill:#ffb07b"/><path d="M2099.49,2946.23c-56.06,0-115.65-13.27-115.65-37.88s59.59-37.88,115.65-37.88,115.65,13.28,115.65,37.88S2155.56,2946.23,2099.49,2946.23Zm0-68c-63.59,0-107.91,15.88-107.91,30.14s44.32,30.15,107.91,30.15,107.92-15.89,107.92-30.15S2163.09,2878.21,2099.49,2878.21Z" style="fill:#f93"/><path d="M2011.58,2908.7l20.91-.32c-.59-3.41,2.36-7,7.17-9.23l14.56,1.18c-4.66,2.25-8,5.41-7.3,8.72.9,4.14,10.07,6.81,22.06,6.66,11.65-.15,18.52-2.53,24.27-7,7.78-6.27,17.37-10.3,36.77-10.65,18.72-.34,33.33,3.08,37.12,8.69l23.07-.34.13,3.8-22.06.31c-.22,3.63-3.64,6.13-7.31,7.9l-14.76-1.31c2.54-1.28,7.22-3.79,6.91-7.65-.39-4.69-10.89-6.3-19.84-6.15-11.57.19-17,2.52-24.22,7.86-8.21,6.19-18.85,9.34-37.66,9.55-16.5.18-32.53-2.78-37.43-8.67l-21.44.3Z" style="fill:#e5772c"/><path d="M1623,3110.46c-25.31-7.2-59.27-11.6-96.64-11.6s-71.32,4.4-96.63,11.6h-45V3142c0,23.8,63.4,43.09,141.62,43.09S1668,3165.75,1668,3142v-31.49Z" style="fill:#e5772c"/><ellipse cx="1526.38" cy="3110.46" rx="141.63" ry="43.09" style="fill:#ffb07b"/><path d="M1526.38,3148.34c-56.06,0-115.65-13.28-115.65-37.88s59.59-37.88,115.65-37.88S1642,3085.85,1642,3110.46,1582.45,3148.34,1526.38,3148.34Zm0-68c-63.59,0-107.91,15.89-107.91,30.15s44.32,30.14,107.91,30.14,107.92-15.89,107.92-30.14S1590,3080.31,1526.38,3080.31Z" style="fill:#f93"/><path d="M1438.47,3110.81l20.91-.32c-.59-3.42,2.36-7,7.17-9.24l14.56,1.19c-4.66,2.25-8,5.41-7.3,8.71.9,4.15,10.07,6.82,22.06,6.67,11.66-.15,18.52-2.53,24.27-7,7.78-6.28,17.37-10.3,36.77-10.65,18.72-.34,33.34,3.08,37.12,8.69l23.07-.35.14,3.81-22.06.31c-.22,3.62-3.65,6.12-7.32,7.89l-14.76-1.31c2.54-1.28,7.23-3.79,6.91-7.64-.38-4.69-10.89-6.3-19.84-6.16-11.57.19-17,2.53-24.22,7.86-8.21,6.19-18.85,9.34-37.65,9.55-16.51.19-32.54-2.78-37.43-8.67l-21.45.3Z" style="fill:#e5772c"/><path d="M1621.55,3068c-25.31-7.19-59.27-11.6-96.63-11.6s-71.33,4.41-96.64,11.6h-45v31.49c0,23.8,63.41,43.1,141.63,43.1s141.63-19.3,141.63-43.1V3068Z" style="fill:#e5772c"/><ellipse cx="1524.92" cy="3067.95" rx="141.63" ry="43.09" style="fill:#ffb07b"/><path d="M1524.92,3105.83c-56.07,0-115.65-13.28-115.65-37.88s59.58-37.88,115.65-37.88,115.65,13.28,115.65,37.88S1581,3105.83,1524.92,3105.83Zm0-68c-63.6,0-107.92,15.88-107.92,30.14s44.32,30.15,107.92,30.15,107.91-15.89,107.91-30.15S1588.51,3037.81,1524.92,3037.81Z" style="fill:#f93"/><path d="M1437,3068.3l20.91-.32c-.59-3.42,2.36-7,7.17-9.24l14.56,1.19c-4.66,2.25-8,5.41-7.3,8.72.9,4.14,10.07,6.81,22.06,6.66,11.66-.15,18.53-2.53,24.28-7,7.77-6.28,17.37-10.3,36.76-10.65,18.73-.34,33.34,3.08,37.12,8.69l23.08-.35.13,3.81-22.06.31c-.22,3.63-3.65,6.12-7.32,7.89l-14.76-1.31c2.55-1.27,7.23-3.78,6.91-7.64-.38-4.69-10.89-6.3-19.84-6.16-11.57.19-17,2.53-24.22,7.87-8.21,6.19-18.85,9.34-37.65,9.55-16.51.18-32.53-2.78-37.43-8.68L1438,3072Z" style="fill:#e5772c"/><path d="M1210.73,1460.67s36.46,43.65,100.55,38.13v-99.45s42,12.15,56.36-9.95-18.79-186.74-18.79-186.74-175.69,11-150.28,84S1237.25,1380,1210.73,1460.67Z" style="fill:#ef735b"/><path d="M1189.42,1210.67s-37.67,15.92-14.05,52.76c28.75,44.86,49.71,118.33,49.71,118.33s24.32-12.87,18.8-30.79-30.94-64.33-4.42-69.86,22.1,22.7,22.1,22.7h11s18-21.59,5-41.48,91.14-17.68,104.4-48.62-10.75-43.1-10.75-43.1,8.45-45-17-52.7-55.39,30.6-55.39,30.6,3-45.3-21.29-32c-13.12,7.15-47.12,19.11-70.19,44.2C1187.75,1182.06,1168.93,1201.52,1189.42,1210.67Z" style="fill:#0f1e60"/><path d="M1293.37,1503.89c-95.09,0-129.12-104.47-129.47-105.59a3.86,3.86,0,1,1,7.37-2.33c1.46,4.61,36.86,112.72,139.5,99a3.87,3.87,0,0,1,1,7.67A139.61,139.61,0,0,1,1293.37,1503.89Z" style="fill:#2e469e"/><path d="M1222,1533.11c-101.14,0-148.4-43.17-150.88-45.5a3.87,3.87,0,0,1,5.31-5.63c.58.54,47.53,43.17,147,43.17,27.25,0,58.41-3.2,93.67-11.34,21.49-5,12.24-51.87,12.14-52.34a3.87,3.87,0,0,1,7.57-1.59c.47,2.23,11.17,54.74-18,61.47C1282.24,1529.79,1250,1533.11,1222,1533.11Z" style="fill:#2e469e"/><path d="M1358.77,1900.27a3.86,3.86,0,0,1-2.34-.79c-12.7-9.69-19.09-20.11-19-31,.15-15.73,14-26,14.56-26.47a3.86,3.86,0,0,1,4.57,6.23c-.23.18-11.32,8.59-11.4,20.36-.05,8.29,5.31,16.61,15.95,24.72a3.87,3.87,0,0,1-2.35,6.94Z" style="fill:#2e469e"/><path d="M1977.93,2920c-42.49,44.94-105.82,59.8-144.54,33.78-40.57-27.26-41.34-90.31,1.77-141.67,45.12-53.76,117.15-70.22,157-36.09C2030.15,2808.52,2022.24,2873.17,1977.93,2920Z" style="fill:#e5772c"/><path d="M1963.69,2911.18c-42.53,45.48-106.37,60.44-145.75,34-41.27-27.69-42.66-91.62.43-143.65,45.12-54.48,117.83-71.07,158.47-36.35C2015.48,2798.2,2008.05,2863.75,1963.69,2911.18Z" style="fill:#ffb07b"/><path d="M1869.71,2943.77c-14.62,0-28.38-3.72-39.73-11.51-14.18-9.72-23.35-25.09-25.83-43.27-3.51-25.7,6.11-54.33,26.4-78.51,37.46-44.64,98-58.21,132.34-29.65,13.13,11,20.71,26.52,21.91,45,1.69,26-10,55.3-31.18,78.22h0C1929.92,2929.67,1898.17,2943.77,1869.71,2943.77Zm48.72-170.3c-27.8,0-59.3,15-82,42-18.89,22.52-27.89,49-24.67,72.49,2.22,16.23,10,29.35,22.55,37.95,30.37,20.83,80.26,8.93,113.58-27.08,19.8-21.4,30.69-48.49,29.14-72.47-1.06-16.32-7.68-30-19.15-39.56C1947.11,2777.75,1933.3,2773.47,1918.43,2773.47Z" style="fill:#f93"/><polygon points="1995.41 2859.66 2010.94 2865.65 2003.93 2882.94 1988.68 2875.52 1995.41 2859.66" style="fill:#ffb07b"/><polygon points="1972.97 2891.55 1994.36 2899.45 1983.05 2914.62 1966.53 2906.9 1972.97 2891.55" style="fill:#ffb07b"/><path d="M1837.06,2918.62l13.14-14.92c-7.19-5.34-12.47-13.47-13.67-20.46l12-8a32.32,32.32,0,0,0,12.54,19.67c8.85,6.36,20.21,4.54,27.8-4,7.39-8.27,7.18-17,2.06-28.47-7.37-15.91-9.07-29.28,3-43.21,11.67-13.45,28.1-17.75,41.78-10.91l14.51-16.46,7.66,6.31-13.92,15.69c7.08,6.26,9.8,12.82,10.9,18.32l-12.33,8a29.28,29.28,0,0,0-10.67-17.61c-9.6-7.63-19.73-3.11-25.33,3.29-7.25,8.28-6.19,16-.3,29.89,6.92,16.06,6.18,28.67-5.79,42-10.52,11.66-27,17.7-41.94,11.16L1845,2924.1Z" style="fill:#e5772c"/><path d="M1478.49,3163.37c-42.49,44.94-105.81,59.8-144.54,33.77-40.56-27.26-41.33-90.31,1.78-141.67,45.11-53.76,117.15-70.22,157-36.08C1530.71,3051.85,1522.8,3116.5,1478.49,3163.37Z" style="fill:#e5772c"/><path d="M1464.25,3154.52c-42.53,45.47-106.37,60.43-145.75,34-41.27-27.69-42.66-91.63.44-143.66,45.12-54.48,117.82-71.06,158.47-36.34C1516.05,3041.53,1508.61,3107.09,1464.25,3154.52Z" style="fill:#ffb07b"/><path d="M1370.27,3187.1c-14.62,0-28.37-3.71-39.72-11.5-14.18-9.73-23.35-25.09-25.84-43.28-3.51-25.7,6.12-54.32,26.41-78.51,37.45-44.64,98.05-58.2,132.33-29.64,13.14,10.95,20.71,26.51,21.91,45,1.69,26.05-10,55.29-31.18,78.22h0C1430.48,3173,1398.74,3187.1,1370.27,3187.1ZM1419,3016.8c-27.8,0-59.31,15-82,42-18.89,22.52-27.88,48.95-24.66,72.5,2.21,16.22,10,29.34,22.54,37.94,30.37,20.83,80.26,8.94,113.58-27.07h0c19.8-21.41,30.7-48.5,29.14-72.48-1.05-16.32-7.67-30-19.14-39.56C1447.67,3021.09,1433.86,3016.8,1419,3016.8Z" style="fill:#f93"/><polygon points="1495.97 3103 1511.51 3108.98 1504.49 3126.28 1489.24 3118.85 1495.97 3103" style="fill:#ffb07b"/><polygon points="1473.54 3134.88 1494.93 3142.78 1483.61 3157.95 1467.1 3150.23 1473.54 3134.88" style="fill:#ffb07b"/><path d="M1337.62,3162l13.15-14.92c-7.19-5.33-12.48-13.47-13.67-20.46l12-8a32.38,32.38,0,0,0,12.54,19.68c8.85,6.35,20.21,4.54,27.81-4,7.38-8.27,7.17-17,2-28.47-7.37-15.9-9.07-29.27,3-43.2,11.66-13.45,28.1-17.76,41.77-10.92l14.51-16.45,7.67,6.31-13.92,15.69c7.08,6.25,9.8,12.81,10.9,18.31l-12.33,7.95a29.33,29.33,0,0,0-10.68-17.61c-9.59-7.62-19.72-3.11-25.33,3.3-7.24,8.27-6.19,16-.3,29.88,6.92,16.06,6.18,28.68-5.79,42-10.51,11.67-27,17.7-41.93,11.17l-13.53,15.25Z" style="fill:#e5772c"/><path d="M2252.42,2849.08c42.5,44.94,105.82,59.8,144.55,33.78,40.56-27.26,41.33-90.32-1.78-141.68-45.11-53.75-117.15-70.21-157-36.08C2200.21,2737.57,2208.12,2802.22,2252.42,2849.08Z" style="fill:#e5772c"/><path d="M2266.67,2840.23c42.53,45.48,106.37,60.44,145.75,34,41.26-27.69,42.66-91.62-.44-143.65-45.12-54.48-117.82-71.07-158.47-36.35C2214.87,2727.24,2222.31,2792.8,2266.67,2840.23Z" style="fill:#ffb07b"/><path d="M2360.64,2872.82c-28.46,0-60.2-14.09-83.9-39.71h0c-21.22-22.92-32.87-52.17-31.19-78.22,1.2-18.49,8.78-34.06,21.92-45,34.28-28.57,94.88-15,132.33,29.65,20.3,24.18,29.92,52.8,26.41,78.51-2.48,18.18-11.66,33.55-25.84,43.27C2389,2869.1,2375.26,2872.82,2360.64,2872.82Zm-78.22-45c33.32,36,83.21,47.9,113.58,27.08,12.53-8.6,20.33-21.72,22.54-38,3.22-23.55-5.77-50-24.66-72.49-34.77-41.44-90.39-54.57-121.46-28.67-11.47,9.56-18.09,23.24-19.15,39.56-1.55,24,9.35,51.07,29.15,72.47Z" style="fill:#f93"/><polygon points="2234.95 2788.71 2219.41 2794.7 2226.43 2811.99 2241.67 2804.57 2234.95 2788.71" style="fill:#ffb07b"/><polygon points="2257.38 2820.6 2235.99 2828.49 2247.31 2843.67 2263.82 2835.95 2257.38 2820.6" style="fill:#ffb07b"/><path d="M2385.79,2852.32l-13.22-14.86c-6.17,6.49-14.88,10.75-22,11.09l-6.52-12.84a32.33,32.33,0,0,0,21-10.07c7.39-8,7-19.51-.56-28.08-7.31-8.33-16-9.18-28-5.49-16.67,5.39-30.15,5.46-42.52-8.23-11.93-13.21-14.21-30-5.77-42.79l-14.58-16.39,7.2-6.85,13.89,15.72c7.06-6.27,13.9-8.17,19.5-8.6l6.39,13.2a29.4,29.4,0,0,0-18.77,8.47c-8.73,8.6-5.48,19.2.2,25.54,7.34,8.19,15.1,8.08,29.63,3.92,16.78-4.93,29.21-2.66,40.95,10.83,10.31,11.85,14.3,28.92,6,43l13.51,15.27Z" style="fill:#e5772c"/><path d="M2224.51,2855.56c-25.31-7.2-59.27-11.61-96.63-11.61s-71.32,4.41-96.63,11.61h-45v31.49c0,23.8,63.41,43.09,141.63,43.09s141.63-19.29,141.63-43.09v-31.49Z" style="fill:#e5772c"/><ellipse cx="2127.88" cy="2855.56" rx="141.63" ry="43.09" style="fill:#ffb07b"/><path d="M2127.88,2893.44c-56.06,0-115.65-13.28-115.65-37.89s59.59-37.87,115.65-37.87,115.65,13.27,115.65,37.87S2183.94,2893.44,2127.88,2893.44Zm0-68c-63.6,0-107.92,15.89-107.92,30.14s44.32,30.15,107.92,30.15,107.91-15.89,107.91-30.15S2191.47,2825.41,2127.88,2825.41Z" style="fill:#f93"/><path d="M2040,2855.9l20.91-.32c-.6-3.41,2.36-7,7.16-9.23l14.57,1.19c-4.66,2.25-8,5.41-7.3,8.71.9,4.15,10.07,6.82,22.05,6.67,11.66-.15,18.53-2.53,24.28-7,7.77-6.27,17.37-10.3,36.77-10.65,18.72-.33,33.33,3.08,37.12,8.7l23.07-.35.13,3.81-22.06.3c-.22,3.63-3.65,6.13-7.32,7.9l-14.75-1.31c2.54-1.28,7.22-3.79,6.91-7.65-.39-4.69-10.89-6.3-19.85-6.15-11.56.19-17,2.53-24.21,7.86-8.21,6.19-18.85,9.34-37.66,9.55-16.51.19-32.53-2.78-37.43-8.67l-21.44.3Z" style="fill:#e5772c"/><path d="M2381.24,2763.47a34.85,34.85,0,0,1-32.89-46.23c46.68-134.47,60.06-258.22,57.33-323.34-5.7-136.17-94.53-208.07-98.31-211.06a34.81,34.81,0,0,1,42.86-54.86c4.81,3.74,117.91,93.58,125,263,3,71.22-11.24,205.37-61.12,349.08A34.82,34.82,0,0,1,2381.24,2763.47Z" style="fill:#fff"/><circle cx="1763.95" cy="1140.2" r="65.06" transform="translate(-289.59 1581.26) rotate(-45)" style="fill:#fff"/><path d="M1763.91,1207.19a67,67,0,1,1,66-78.4h0a67,67,0,0,1-66,78.4Zm.07-130.12a63.13,63.13,0,1,0,62.17,52.38h0A63.23,63.23,0,0,0,1764,1077.07Z" style="fill:#2e469e"/><path d="M1747.75,1119.45c1.28,7.44-1.33,14.1-5.84,14.88s-9.21-4.62-10.5-12.06,1.33-14.11,5.84-14.89S1746.46,1112,1747.75,1119.45Z" style="fill:#2e469e"/><path d="M1787.76,1112.53c1.29,7.45-1.33,14.11-5.84,14.89s-9.2-4.62-10.49-12.06,1.33-14.11,5.84-14.89S1786.48,1105.09,1787.76,1112.53Z" style="fill:#2e469e"/><path d="M1800.81,1143.89a35.7,35.7,0,0,1-70.36,12.15Z" style="fill:#2e469e"/><path d="M1765,1245.12a105.41,105.41,0,1,1,18.12-1.56A105.93,105.93,0,0,1,1765,1245.12Zm.27-206.39a101.9,101.9,0,0,0-17.29,1.49,101.25,101.25,0,1,0,117,82.53h0A101.42,101.42,0,0,0,1765.22,1038.73Z" style="fill:#2e469e"/><path d="M1594,1242.23a1.93,1.93,0,0,1-.89-3.65l74.67-38.71a1.94,1.94,0,1,1,1.78,3.44l-74.67,38.7A1.92,1.92,0,0,1,1594,1242.23Z" style="fill:#2e469e"/><path d="M1566.94,1255.66a1.93,1.93,0,0,1-.87-3.66l19.09-9.52a1.93,1.93,0,1,1,1.73,3.46l-19.09,9.52A1.9,1.9,0,0,1,1566.94,1255.66Z" style="fill:#2e469e"/><path d="M2102.61,1176.46q-3.68,0-7.38-.26a104.68,104.68,0,1,1,7.38.26Zm-.22-206.32a101.2,101.2,0,1,0,76.41,34.7A100.86,100.86,0,0,0,2102.39,970.14Z" style="fill:#2e469e"/><circle cx="2102.46" cy="1071.34" r="59.67" transform="translate(-238.9 1364.85) rotate(-34.15)" style="fill:#fff"/><path d="M2102.55,1132.94c-1.44,0-2.88,0-4.33-.15a61.6,61.6,0,0,1-36.22-107.9h0a61.6,61.6,0,1,1,40.55,108Zm-38-105.14a57.74,57.74,0,1,0,81.46,5.62,57.81,57.81,0,0,0-81.46-5.62Z" style="fill:#2e469e"/><path d="M2277,1167.57a1.92,1.92,0,0,1-1-.28l-71.84-43.75a1.94,1.94,0,0,1,2-3.31L2278,1164a1.93,1.93,0,0,1-1,3.58Z" style="fill:#2e469e"/><path d="M2302.55,1183.72a2,2,0,0,1-1-.3l-18-11.38a1.93,1.93,0,0,1,2.06-3.27l18,11.38a1.94,1.94,0,0,1-1,3.57Z" style="fill:#2e469e"/><path d="M2099.9,1116.64v-11.73c-6.79-.12-13.71-2.23-17.82-5.16l2.81-7.86a31.54,31.54,0,0,0,16.77,5c8.33,0,14-4.81,14-11.49,0-6.45-4.57-10.44-13.25-14-12-4.69-19.35-10.2-19.35-20.4,0-9.73,6.92-17.12,17.59-18.88v-11.73H2108v11.38a32.11,32.11,0,0,1,15.25,4.1l-2.93,7.74a28.24,28.24,0,0,0-14.78-4.1c-9,0-12.42,5.39-12.42,10.2,0,6,4.33,9,14.53,13.37,12.08,4.92,18.18,10.9,18.18,21.34,0,9.38-6.45,18.06-18.53,19.93v12.2Z" style="fill:#2e469e"/><path d="M530.53,1755.71c131.92-7.22,199.53-258.94,120-337.48S291.23,1768.79,530.53,1755.71Z" style="fill:#f0f5ff"/><path d="M3556.51,1875.82c103-82.75,11.23-326.7-99.2-344.16S3369.67,2025.92,3556.51,1875.82Z" style="fill:#f0f5ff"/><path d="M2371.53,759.56c147.57,117.11-438.72,144.75-517.77,75.69S2179.4,607.07,2371.53,759.56Z" style="fill:#f0f5ff"/><path d="M1283.66,2237.21a5.41,5.41,0,0,1-1.05-.1,5.79,5.79,0,0,1-4.66-6.74l9-49.3,2.76-1.27c.94-.42,93.55-43.8,97-153a5.8,5.8,0,0,1,5.79-5.62h.19a5.79,5.79,0,0,1,5.61,6c-3.31,105.48-84.73,153.32-101,161.82l-7.92,43.48A5.8,5.8,0,0,1,1283.66,2237.21Z" style="fill:#354db5"/><path d="M2014.27,1938.39c-.12,14.79-4.46,27.53-14,35.09-9,7-29.46,5.36-40.82-.76a25.67,25.67,0,0,1-2.31-1.39c-4.5-3-8.43-7.27-12.13-11.84-1.78-2.2-3.5-4.47-5.21-6.72l-10.3-13.61q-4.41-5.81-8.81-11.63c-2.88-3.79-8.61-13.92-11.22-20a236.32,236.32,0,0,1,70.75-61.17,215,215,0,0,0,10.54,32.79l.46,1.12c2.78,6.69,6.85,14,10.79,21.62a161.56,161.56,0,0,1,8.88,19.32A50.16,50.16,0,0,1,2014.27,1938.39Z" style="fill:#231f20;opacity:0.2"/><path d="M1978.81,1823.59s-88-36.82-64.44,61.11c13,54.07,58.6,104.57,85.36,70.37,17.35-22.17-33.24-92.34-19.29-117Z" style="fill:#d4916e"/><path d="M1995,1960.14c-27.1,23.33-68.29-24.47-80.57-75.44-19.12-79.36,52-126.89,79.7-142.06-2.75,1.51-5.61,6.6-7.89,8.93-3.23,3.33-6.63,6.48-10,9.62-6.62,6.09-13.39,12.06-19.34,18.82-36.42,41.33-38.84,106.61-4.75,150.15a114,114,0,0,0,15.93,16.2c6.31,5.39,13.21,10.43,21.21,12.65A38.58,38.58,0,0,0,1995,1960.14Z" style="fill:#333;opacity:0.2"/></svg>