<svg xmlns="http://www.w3.org/2000/svg" viewBox="0 0 3538.8 2608.81"><title>Asset 1</title><g id="Layer_2" data-name="Layer 2"><g id="Layer_1-2" data-name="Layer 1"><path d="M379.46,2419C123.3,2346.68-133.28,1676.4,92.14,1391.32s494-296.8,440.48-638.34C482.89,435.65,727.33,96.81,1136.36,110.07S1895.67,362.85,2217,203.18C2764-68.64,3236.87,257.58,3151,701.54c-48.31,249.88,3.73,497.57,108.48,651.87,227.16,334.62,148.3,899.6-84.1,1018.35S713.19,2513.3,379.46,2419Z" style="fill:#f0f5ff"/><path d="M505.76,2242.3c-136-67.71-251.94-249.71-185.64-336s126,194.29,185.64,147.78-193.52-245.41-100.08-325,179.64,170.59,239.31,135S298.9,1341,671.51,1207.88c264.82-94.6,72.93,713.93,232,730.27s2.29-204.22,192.23-142.79-15.47,169.34,71.84,233.84,39.52-125.52,158.33-70.47-63.68,243.83-63.68,243.83S817.37,2397.4,505.76,2242.3Z" style="fill:#b6d4ff"/><path d="M926.76,2228.4a3.84,3.84,0,0,1-2.92-1.33c-127.3-146.22-190.18-381.57-220.51-553.25-32.82-185.79-35.67-339.13-35.69-340.66a3.88,3.88,0,0,1,3.8-3.93h.07a3.86,3.86,0,0,1,3.86,3.8c0,1.53,2.87,154.36,35.6,339.57,30.16,170.67,92.59,404.53,218.71,549.4a3.87,3.87,0,0,1-2.92,6.4Z" style="fill:#679dc9"/><path d="M690.23,1568.5l-68.37-104.26a3.87,3.87,0,0,1,6.47-4.24l61.72,94.11,74.3-120A3.87,3.87,0,1,1,771,1438a1.74,1.74,0,0,1-.11.18Z" style="fill:#679dc9"/><path d="M739.42,1826.4,668.74,1754a3.87,3.87,0,0,1,5.54-5.4l63.35,64.93,58.1-107.09a3.87,3.87,0,0,1,6.8,3.69Z" style="fill:#679dc9"/><path d="M877,2239.18a3.85,3.85,0,0,1-1.79-.44C618.5,2104.58,510,1880.23,508.89,1878a3.87,3.87,0,0,1,7-3.31c1.06,2.22,108.59,224.3,362.94,357.21a3.87,3.87,0,0,1-1.79,7.3Z" style="fill:#679dc9"/><path d="M791.33,2222.4c-21.35,0-43.61-.7-66.25-2.41-172.86-13-288.91-78.17-335.59-188.44a3.87,3.87,0,0,1,7.12-3c57.44,135.68,210.56,174.81,328.9,183.74,119.14,9,227.94-10,244.68-13.06l108.32-335.39a3.87,3.87,0,0,1,7.47,2c0,.11-.07.22-.11.33L976.14,2205.87l-2.22.45C973,2206.51,892.51,2222.4,791.33,2222.4Z" style="fill:#679dc9"/><path d="M1039,1995l-23.2-87.66a3.87,3.87,0,1,1,7.48-2h0l21.16,79.94,36.6-11a3.87,3.87,0,0,1,2.22,7.41Z" style="fill:#679dc9"/><path d="M854.9,2124.16l-121.76-85.33a3.87,3.87,0,1,1,4.15-6.53l.29.2,111.87,78.38,23.78-133.48a3.87,3.87,0,0,1,7.68,1c0,.12,0,.25-.07.37Z" style="fill:#679dc9"/><path d="M601.55,2013.68a3.87,3.87,0,0,1-3.87-3.87h0V1935.9a3.87,3.87,0,0,1,7.74,0v73.91a3.87,3.87,0,0,1-3.87,3.87Z" style="fill:#679dc9"/><path d="M680.37,2098.4a3.68,3.68,0,0,1-.66-.06l-78.83-13.76a3.87,3.87,0,0,1,1.33-7.62L681,2090.72a3.87,3.87,0,0,1-.67,7.68Z" style="fill:#679dc9"/><path d="M585.74,2194.48a3.86,3.86,0,0,1-3.71-2.8l-17-58.86a3.87,3.87,0,0,1,7.44-2.15h0l17,58.87a3.86,3.86,0,0,1-2.64,4.78h0A3.64,3.64,0,0,1,585.74,2194.48Z" style="fill:#679dc9"/><path d="M453.6,2120.8H453l-60.55-9.12a3.87,3.87,0,1,1,.9-7.69l.25,0,60.52,9.07a3.87,3.87,0,0,1-.57,7.7Z" style="fill:#679dc9"/><path d="M3041.52,2265c136-67.7,251.93-249.71,185.63-336s-126,194.3-185.63,147.78,193.52-245.41,100.07-325-179.63,170.59-239.3,135,346.09-523.1-26.52-656.2c-264.83-94.6-72.93,713.94-232.05,730.27s-2.28-204.22-192.22-142.79S2467,1987.45,2379.65,2052s-39.52-125.53-158.33-70.48S2285,2225.4,2285,2225.4,2729.91,2420.18,3041.52,2265Z" style="fill:#b6d4ff"/><path d="M2620.51,2251.18a3.81,3.81,0,0,0,2.92-1.33c127.3-146.23,190.18-381.57,220.51-553.25,32.82-185.79,35.67-339.14,35.69-340.67a3.88,3.88,0,0,0-3.8-3.93h-.07a3.86,3.86,0,0,0-3.86,3.81c0,1.52-2.87,154.35-35.6,339.56-30.16,170.68-92.59,404.54-218.71,549.4a3.87,3.87,0,0,0,.38,5.46,3.81,3.81,0,0,0,2.54.95Z" style="fill:#679dc9"/><path d="M2857,1591.24,2925.41,1487a3.87,3.87,0,0,0-6.47-4.24l-61.71,94.11-74.31-120a3.87,3.87,0,0,0-6.58,4.07Z" style="fill:#679dc9"/><path d="M2807.85,1849.15l70.68-72.43a3.86,3.86,0,0,0-5.53-5.4l-63.35,64.92-58.11-107.08a3.87,3.87,0,0,0-6.91,3.49,1.28,1.28,0,0,0,.11.2Z" style="fill:#679dc9"/><path d="M2670.24,2261.92a3.85,3.85,0,0,0,1.79-.44c256.75-134.16,365.28-358.51,366.35-360.76a3.87,3.87,0,0,0-7-3.31c-1.06,2.23-108.59,224.3-362.94,357.22a3.86,3.86,0,0,0,1.79,7.29Z" style="fill:#679dc9"/><path d="M2756,2245.1c21.34,0,43.6-.71,66.24-2.41,172.86-13,288.91-78.18,335.6-188.45a3.87,3.87,0,0,0-7.13-3c-57.44,135.67-210.56,174.8-328.9,183.73-119.14,9-227.94-9.95-244.68-13.06l-108.31-335.39a3.87,3.87,0,0,0-7.37,2.38l109.74,339.72,2.22.44C2574.31,2229.26,2654.76,2245.1,2756,2245.1Z" style="fill:#679dc9"/><path d="M2508.23,2017.73l23.2-87.67a3.87,3.87,0,0,0-7.48-2h0l-21.16,80-36.59-11a3.87,3.87,0,0,0-2.23,7.41Z" style="fill:#679dc9"/><path d="M2692.37,2146.91l121.8-85.33a3.87,3.87,0,1,0-4.44-6.34h0l-111.87,78.38-23.81-133.53a3.87,3.87,0,1,0-7.62,1.36Z" style="fill:#679dc9"/><path d="M2945.72,2036.4a3.87,3.87,0,0,0,3.87-3.87h0v-73.9a3.87,3.87,0,0,0-7.73-.39,2.54,2.54,0,0,0,0,.39v73.9a3.86,3.86,0,0,0,3.85,3.87Z" style="fill:#679dc9"/><path d="M2866.9,2121.13a3.79,3.79,0,0,0,.67-.06l78.82-13.76a3.87,3.87,0,0,0-1.33-7.62l-78.82,13.76a3.87,3.87,0,0,0,.66,7.68Z" style="fill:#679dc9"/><path d="M2961.53,2217.22a3.86,3.86,0,0,0,3.71-2.79l17-58.87a3.87,3.87,0,0,0-7.33-2.48c0,.11-.07.23-.1.34l-17,58.86a3.86,3.86,0,0,0,2.65,4.79h0A3.89,3.89,0,0,0,2961.53,2217.22Z" style="fill:#679dc9"/><path d="M3093.67,2143.54a2.91,2.91,0,0,0,.59,0l60.54-9.11a3.87,3.87,0,0,0-1.15-7.66l-60.55,9.12a3.87,3.87,0,0,0,.57,7.69Z" style="fill:#679dc9"/><path d="M204.85,2369c-136-67.7-251.94-249.71-185.64-336s125.93,194.38,185.64,147.82-193.52-245.42-100.08-325,179.64,170.58,239.31,135S-2,1467.75,370.6,1334.64c264.82-94.59,72.93,713.94,232,730.27s2.29-204.22,192.23-142.79S779.36,2091.47,866.67,2156s39.52-125.53,158.33-70.48-63.64,243.91-63.64,243.91S516.46,2524.16,204.85,2369Z" style="fill:#6fddb5"/><path d="M625.85,2355.16a3.84,3.84,0,0,1-2.92-1.33c-127.3-146.22-190.18-381.57-220.51-553.25-32.82-185.79-35.67-339.14-35.69-340.66a3.88,3.88,0,0,1,3.8-3.93h.07a3.86,3.86,0,0,1,3.86,3.8c0,1.52,2.87,154.36,35.6,339.56,30.16,170.68,92.59,404.54,218.71,549.4a3.87,3.87,0,0,1-2.92,6.41Z" style="fill:#34c68e"/><path d="M389.32,1695.22,321,1591a3.87,3.87,0,0,1,6.47-4.25h0l61.72,94.11,74.3-120a3.87,3.87,0,0,1,6.58,4.07Z" style="fill:#34c68e"/><path d="M438.51,1953.14l-70.68-72.44a3.87,3.87,0,0,1,5.54-5.4l63.35,64.92,58.1-107.08a3.87,3.87,0,0,1,6.8,3.69Z" style="fill:#34c68e"/><path d="M576.14,2365.91a3.85,3.85,0,0,1-1.79-.44C317.59,2231.3,209.05,2007,208,2004.7a3.87,3.87,0,0,1,7-3.31h0c1.06,2.23,108.59,224.3,363,357.22a3.87,3.87,0,0,1-1.8,7.3Z" style="fill:#34c68e"/><path d="M490.42,2349.08c-21.35,0-43.61-.71-66.24-2.41-172.87-13-288.92-78.18-335.6-188.45a3.87,3.87,0,0,1,7.12-3C153.14,2290.9,306.26,2330,424.6,2339c119.14,9,227.94-10,244.68-13.06L777.6,1990.5a3.87,3.87,0,0,1,7.36,2.38L675.24,2332.6l-2.22.45C672.05,2333.24,591.6,2349.08,490.42,2349.08Z" style="fill:#34c68e"/><path d="M738.14,2121.71,714.94,2034a3.87,3.87,0,1,1,7.48-2l21.16,80,36.6-11a3.87,3.87,0,0,1,2.22,7.41Z" style="fill:#34c68e"/><path d="M554,2250.89l-121.8-85.33a3.87,3.87,0,1,1,4.44-6.34L548.5,2237.6l23.82-133.53a3.87,3.87,0,0,1,7.61,1.36Z" style="fill:#34c68e"/><path d="M300.64,2140.4a3.87,3.87,0,0,1-3.87-3.87h0v-73.9a3.87,3.87,0,0,1,7.74,0v73.9a3.87,3.87,0,0,1-3.87,3.87Z" style="fill:#34c68e"/><path d="M379.46,2225.11a4.89,4.89,0,0,1-.66-.05L300,2211.3a3.87,3.87,0,0,1,1.33-7.62l78.84,13.72a3.87,3.87,0,0,1-.67,7.68Z" style="fill:#34c68e"/><path d="M284.83,2321.2a3.86,3.86,0,0,1-3.69-2.8l-17-58.86a3.87,3.87,0,0,1,7.44-2.15h0l17,58.86a3.87,3.87,0,0,1-2.64,4.79A3.82,3.82,0,0,1,284.83,2321.2Z" style="fill:#34c68e"/><path d="M152.69,2247.52a2.81,2.81,0,0,1-.58,0l-60.55-9.12a3.87,3.87,0,0,1,1.15-7.65l60.55,9.11a3.87,3.87,0,0,1-.57,7.69Z" style="fill:#34c68e"/><path d="M3338,2369c133.35-67.7,247.05-249.71,182-336s-123.53,194.3-182,147.79,189.77-245.42,98.14-325-176.15,170.58-234.66,135,339.37-523.09-26-656.2c-259.68-94.59-71.51,713.94-227.54,730.27s-2.24-204.22-188.49-142.79,15.17,169.35-70.46,233.85-38.74-125.53-155.25-70.48,62.45,243.94,62.45,243.94S3032.39,2524.16,3338,2369Z" style="fill:#6fddb5"/><path d="M2925.14,2355.16a3.87,3.87,0,0,1-2.94-6.38c123.69-144.89,184.91-378.81,214.49-549.53,32.08-185.2,34.86-337.94,34.88-339.46a3.93,3.93,0,0,1,3.93-3.8,3.86,3.86,0,0,1,3.81,3.91h0c0,1.53-2.82,154.87-35,340.66-29.74,171.67-91.4,407-216.23,553.23A3.83,3.83,0,0,1,2925.14,2355.16Z" style="fill:#34c68e"/><path d="M3157.05,1695.32l-79.2-130.44a3.87,3.87,0,0,1,6.37-4.39,3.14,3.14,0,0,1,.24.39l72.78,119.86,60.44-94a3.87,3.87,0,0,1,6.67,3.92,1.78,1.78,0,0,1-.17.27Z" style="fill:#34c68e"/><path d="M3108.8,1953.22l-61.94-116.42a3.87,3.87,0,1,1,6.69-3.88l.14.25,56.92,107,62-64.82a3.87,3.87,0,1,1,5.84,5.08,3.31,3.31,0,0,1-.26.27Z" style="fill:#34c68e"/><path d="M2973.88,2365.91a3.87,3.87,0,0,1-1.82-7.29c249.52-133,354.85-355,355.88-357.2a3.87,3.87,0,0,1,7,3.26c-1.05,2.25-107.48,226.6-359.26,360.77A3.76,3.76,0,0,1,2973.88,2365.91Z" style="fill:#34c68e"/><path d="M3057.93,2349.08c-99.25,0-178.14-15.84-179.09-16l-2.23-.45-.68-2.17L2769,1992.89a3.87,3.87,0,0,1,7.37-2.34l106.21,335.39c16.56,3.13,123.14,22,239.85,13,116-8.94,266.12-48.06,322.44-183.72a3.88,3.88,0,0,1,7.15,3c-45.79,110.28-159.61,175.45-329.15,188.47C3100.7,2348.4,3078.85,2349.08,3057.93,2349.08Z" style="fill:#34c68e"/><path d="M2815.08,2121.74l-43.5-13.29a3.87,3.87,0,1,1,2.06-7.46l.2.06,35.78,10.93,20.74-79.9a3.87,3.87,0,0,1,7.49,1.94Z" style="fill:#34c68e"/><path d="M2995.53,2251l-25.46-145.56a3.87,3.87,0,1,1,7.57-1.59,2.38,2.38,0,0,1,.05.26L3001,2237.51l109.57-78.29a3.87,3.87,0,0,1,4.49,6.3Z" style="fill:#34c68e"/><path d="M3244,2140.4a3.87,3.87,0,0,1-3.87-3.87h0v-73.9a3.87,3.87,0,0,1,7.74,0v73.9A3.87,3.87,0,0,1,3244,2140.4Z" style="fill:#34c68e"/><path d="M3166.73,2225.11a3.86,3.86,0,0,1-.68-7.67l77.3-13.76a3.86,3.86,0,0,1,1.35,7.61l-77.29,13.76A3.91,3.91,0,0,1,3166.73,2225.11Z" style="fill:#34c68e"/><path d="M3259.52,2321.2a3.83,3.83,0,0,1-3.72-4.92l16.67-58.86a3.87,3.87,0,0,1,7.53,1.8l-.09.31-16.67,58.87A3.86,3.86,0,0,1,3259.52,2321.2Z" style="fill:#34c68e"/><path d="M3389.14,2247.52a3.87,3.87,0,0,1-.58-7.69l59.37-9.11a3.87,3.87,0,0,1,1.17,7.65l-59.37,9.11A3.9,3.9,0,0,1,3389.14,2247.52Z" style="fill:#34c68e"/><ellipse cx="1789.61" cy="2402.5" rx="1538.98" ry="206.31" style="fill:#9cb9e8"/><ellipse cx="1098.75" cy="2379.98" rx="317.48" ry="53.91" style="fill:#679dc9"/><ellipse cx="1860.4" cy="2363.58" rx="356.58" ry="55.46" style="fill:#679dc9"/><ellipse cx="2444.32" cy="2323.23" rx="317.78" ry="40.35" style="fill:#679dc9"/><path d="M844.24,2291.62,826,2392.73,1053.08,2411s11.6-26.52-16.58-36.46-104.42-39.78-119.33-82.88Z" style="fill:#f0f5ff"/><path d="M1193.43,2258.47l-18.23,101.11,227.07,18.23s11.61-26.52-16.57-36.46-104.42-39.78-119.34-82.88Z" style="fill:#f0f5ff"/><path d="M909.83,1261s-42,102.4-47,180.3,0,465.75,0,465.75l-46.41,411.06H957.31s81.21-435.92,84.53-493.93,14.91-288.4,14.91-288.4,54.7,310,59.68,348.07S1149.58,2232,1176.1,2290c116-11.6,122.65-18.23,122.65-18.23s-34.7-372.51-38.12-475.7c-2.1-63.36-95.06-566.14-95.06-566.14Z" style="fill:#0f1e60"/><path d="M897.68,1260.07v35.84s217.14,7.89,289.23-8.7l4.85-201.91,155.64,28.26-4.22-54.29s-100.74-15.19-115.66-119,4.14-193.38-121.41-201.67c0,0-105.67-76.24-176.94-96.13S785,662.36,798.23,717.06,896,836.4,896,836.4,833,1222.72,897.68,1260.07Z" style="fill:#5167eb"/><path d="M1188.45,1227.18h0a3.86,3.86,0,0,1-3.83-3.89h0l3.32-362.55a3.86,3.86,0,0,1,3.87-3.83h0a3.87,3.87,0,0,1,3.83,3.91h0l-3.32,362.59A3.85,3.85,0,0,1,1188.45,1227.18Z" style="fill:#2e469e"/><ellipse cx="1873.39" cy="1271.42" rx="311.61" ry="41.53" style="fill:#0fb9b1"/><path d="M2095.34,997c-10.12,33.78-35.78,62.51-59.69,87.43-20.59,21.46-39.82,39.67-50,67.37-1,2.81-2,5.72-2.82,8.75-8.09,29-3.69,61-1.28,90.58H1812l-32.4-55.34-24.72-49c-13.94,24.68,34.65,90.35,17.3,112.52a36.41,36.41,0,0,1-4.78,5.07c-27.1,23.33-68.3-24.47-80.58-75.44-19.12-79.36,52-126.89,79.71-142.06,6.47-3.55,10.57-5.33,10.57-5.33l22.57-7.8a189.79,189.79,0,0,1,71.87-10.31,156.47,156.47,0,0,1,36.26,6.16c10.76,3.23,20.71,10.29,31.47,12.73,6.15,1.39,12.45.8,18.65,0,18.28-2.35,35.58-19,47.95-33.12,17.79-20.31,28.78-47.7,49-65.42,4.75-4.18,10.23-7.76,16.28-8.44.54-.06,1.06-.1,1.57-.11C2095.67,934.58,2100.48,979.81,2095.34,997Z" style="fill:#d4916e"/><path d="M2095.34,997c-10.12,33.78-35.78,62.51-59.69,87.43-20.59,21.46-39.82,39.67-50,67.37,3.58-21.56,10.65-42.43,24.12-59.38,6.56-8.24,14.45-15.31,21.87-22.79a271,271,0,0,0,45.25-60.58c3.36-6.14,6.51-12.48,8.09-19.29,1.71-7.39,1.52-15.08.91-22.63s-1.71-15.49-5.12-22.41c-1.75-3.57-5.37-6.55-8.08-9.5C2095.67,934.58,2100.48,979.81,2095.34,997Z" style="fill:#333;opacity:0.20000000298023224;isolation:isolate"/><path d="M1935.76,1168.14c0,39-34.13,70.68-76.23,70.68a81.21,81.21,0,0,1-27.44-4.72c-28.55-10.21-48.8-35.89-48.8-66,0-39,34.13-70.67,76.24-70.67a80.71,80.71,0,0,1,36.19,8.46C1919.57,1117.87,1935.76,1141.25,1935.76,1168.14Z" style="fill:#fcb086"/><path d="M1792.06,1171.9c0,26.88,16.19,50.25,40,62.21-28.56-10.22-48.81-35.9-48.81-66,0-39,34.13-70.67,76.24-70.67a80.57,80.57,0,0,1,36.19,8.46,81.58,81.58,0,0,0-27.42-4.71C1826.19,1101.22,1792.06,1132.86,1792.06,1171.9Z" style="fill:#333;opacity:0.20000000298023224;isolation:isolate"/><circle cx="1884.99" cy="1225.98" r="124.31" transform="translate(-314.8 1691.97) rotate(-45)" style="fill:#e5772c"/><circle cx="1860.13" cy="1227.64" r="124.31" style="fill:#ffb07b"/><path d="M1860.14,1331.88a104.25,104.25,0,1,1,104.24-104.26v0A104.36,104.36,0,0,1,1860.14,1331.88Zm0-200.75a96.51,96.51,0,1,0,96.51,96.51A96.51,96.51,0,0,0,1860.14,1131.13Z" style="fill:#f93"/><polygon points="1966.86 1163.9 1989.45 1158.62 1999.43 1177.36 1975.44 1181.19 1966.86 1163.9" style="fill:#ffb07b"/><polygon points="1974.6 1204.78 2005.98 1197.46 2009.3 1217.9 1983.17 1222.07 1974.6 1204.78" style="fill:#ffb07b"/><path d="M1855.55,1315.4v-21.62c-12.41-.22-25.26-4.07-32.75-9.42l5.14-14.34a57,57,0,0,0,30.82,9.2c15.19,0,25.47-8.77,25.47-21,0-11.77-8.35-19-24.19-25.47-21.83-8.56-35.31-18.41-35.31-37,0-17.77,12.62-31.25,32.32-34.46v-21.62h13.27v20.73c12.84.43,21.62,3.86,27.82,7.49l-5.35,14.13a51.7,51.7,0,0,0-27-7.28c-16.48,0-22.68,9.85-22.68,18.41,0,11.13,7.91,16.7,26.54,24.4,22,9,33.17,20.12,33.17,39.17,0,16.91-11.77,32.75-33.82,36.39v22.29Z" style="fill:#e5772c"/><circle cx="1968.2" cy="805.69" r="54.38" transform="translate(6.76 1627.71) rotate(-45)" style="fill:#d4916e"/><path d="M2022.58,805.68A54.39,54.39,0,0,1,1941,852.82a54.39,54.39,0,0,0,45.68-98.27A54.39,54.39,0,0,1,2022.58,805.68Z" style="fill:#231f20;opacity:0.10000000149011612;isolation:isolate"/><circle cx="1968.28" cy="805.78" r="34.28" style="fill:#fcb086"/><path d="M2002.48,805.68a34.29,34.29,0,0,1-52.93,28.78,34.28,34.28,0,0,0,28.65-61.56A34.3,34.3,0,0,1,2002.48,805.68Z" style="fill:#231f20;opacity:0.10000000149011612;isolation:isolate"/><circle cx="1751.27" cy="805.79" r="54.38" style="fill:#d4916e"/><path d="M1696.93,805.68a54.39,54.39,0,0,0,81.54,47.14,54.39,54.39,0,0,1-45.68-98.27A54.39,54.39,0,0,0,1696.93,805.68Z" style="fill:#231f20;opacity:0.10000000149011612;isolation:isolate"/><circle cx="1751.27" cy="805.79" r="34.28" style="fill:#fcb086"/><path d="M1717,805.68A34.29,34.29,0,0,0,1770,834.46a34.28,34.28,0,0,1-28.65-61.56A34.3,34.3,0,0,0,1717,805.68Z" style="fill:#231f20;opacity:0.10000000149011612;isolation:isolate"/><path d="M2005.76,995.58a112.15,112.15,0,0,1-18.76,20.76c-48.72,42.21-127.25,43.17-127.25,43.17s-78.52-1-127.24-43.17a111.79,111.79,0,0,1-18.76-20.76c-10.67-15.42-13.49-35.66-7.82-53.94C1721.85,890.17,1755.67,776,1859.75,776c105.77,0,137.91,114.15,153.83,165.62C2019.25,959.92,2016.43,980.16,2005.76,995.58Z" style="fill:#d4916e"/><path d="M1935.52,1045.19a262.16,262.16,0,0,1-75.77,14.32s-102.59-1.25-146-63.94c-10.67-15.42-13.5-35.65-7.84-53.94,14.18-45.8,42.52-141.26,122-161.7-69.41,27-95.35,114.28-108.69,157.43-5.66,18.29-2.85,38.52,7.82,53.94,43.42,62.69,146,63.94,146,63.94A262.55,262.55,0,0,0,1935.52,1045.19Z" style="fill:#231f20;opacity:0.10000000149011612;isolation:isolate"/><ellipse cx="1805.78" cy="873.17" rx="22.76" ry="31.09" style="fill:#2f1d45"/><ellipse cx="1812.53" cy="868.51" rx="7.72" ry="9.55" style="fill:#f8fff8"/><ellipse cx="1913.73" cy="873.17" rx="22.76" ry="31.09" style="fill:#2f1d45"/><ellipse cx="1906.98" cy="868.51" rx="7.72" ry="9.55" style="fill:#f8fff8"/><path d="M1987,1016.34c-48.72,42.21-127.25,43.17-127.25,43.17s-78.52-1-127.24-43.17v-.93C1736,899.94,1859.73,913.5,1859.73,913.5s123.76-13.56,127.23,101.91C1987,1015.72,1987,1016,1987,1016.34Z" style="fill:#fcb086"/><path d="M1887.29,941.64c-8.12-9.48-27.54-9.48-27.54-9.48s-19.41,0-27.53,9.48c0,0-.26,16.64,27.53,25.15C1887.55,958.28,1887.29,941.64,1887.29,941.64Z" style="fill:#2f1d45"/><path d="M1875.5,990.7a110,110,0,0,0-30.65-.52c-15.65,2-24.89,6.79-24.89,6.79.92,6.12,3.25,14.33,9.1,20.68l.21.22c6.27,6.66,15.43,10,27.24,10H1863c11.81,0,21-3.38,27.24-10l.21-.22c5.85-6.35,8.18-14.56,9.1-20.68A125.71,125.71,0,0,0,1875.5,990.7Z" style="fill:#2f1d45"/><path d="M1890.45,1017.64l-.21.23c-6.27,6.66-15.43,10-27.24,10h-6.49c-11.81,0-21-3.37-27.24-10l-.21-.23.21-.22c6.27-6.66,15.43-10,27.24-10H1863c11.81,0,21,3.38,27.24,10Z" style="fill:#ff4b8c"/><circle cx="1289.91" cy="1171.61" r="124.31" style="fill:#e5772c"/><circle cx="1314.78" cy="1173.26" r="124.31" style="fill:#ffb07b"/><path d="M1314.78,1277.51A104.25,104.25,0,1,1,1419,1173.26h0A104.36,104.36,0,0,1,1314.78,1277.51Zm0-200.76a96.51,96.51,0,1,0,96.51,96.51A96.51,96.51,0,0,0,1314.78,1076.75Z" style="fill:#f93"/><polygon points="1208.05 1109.52 1185.46 1104.25 1175.48 1122.98 1199.47 1126.81 1208.05 1109.52" style="fill:#ffb07b"/><polygon points="1200.31 1150.41 1168.93 1143.08 1165.61 1163.53 1191.74 1167.7 1200.31 1150.41" style="fill:#ffb07b"/><path d="M1304.8,1261V1239.4c-12.41-.21-25.25-4.06-32.74-9.41l5.13-14.34a57.09,57.09,0,0,0,30.83,9.2c15.19,0,25.46-8.78,25.46-21,0-11.77-8.34-19-24.18-25.47-21.83-8.56-35.32-18.41-35.32-37,0-17.76,12.63-31.25,32.32-34.46V1085.3h13.27v20.77c12.85.42,21.62,3.85,27.83,7.49l-5.35,14.12a51.93,51.93,0,0,0-27-7.27c-16.48,0-22.69,9.84-22.69,18.4,0,11.14,7.92,16.7,26.54,24.41,22,9,33.18,20.12,33.18,39.16,0,16.92-11.77,32.75-33.82,36.39V1261Z" style="fill:#e5772c"/><path d="M1820.9,1106.64l53.24-31.24,86.85-5.27,3.31,31.59s-34,9.85-55.52,19.8-42.27,33.15-53,36.46-12.43-7.55-.25-20.12c4.93-5.08,34.23-36.14,34.23-36.14S1826.7,1107.56,1820.9,1106.64Z" style="fill:#ef735b"/><path d="M2362.9,2198.8l18.24,101.11-227.07,18.23s-11.61-26.52,16.57-36.46,104.42-39.78,119.34-82.88Z" style="fill:#f0f5ff"/><path d="M2745.78,2232,2764,2333.06l-227.07,18.23s-11.61-26.52,16.57-36.46,104.42-39.78,119.34-82.88Z" style="fill:#f0f5ff"/><path d="M2383.89,1266.19s-95,389-119.34,561.33-15.47,386.75,0,393.38,77.35,19.89,101.66,0,43.1-400,43.1-400l91-285.08s27,324.86,49.22,400,76.69,302.77,95.86,311.61,98.72-6.63,105.35-24.31-63.66-408.49-88.18-465,19.67-290.79,17.46-350.46-61.54-192.26-61.54-192.26Z" style="fill:#0f1e60"/><path d="M2339.69,539.78s23.78-94.48,140.9-21.55,172.92,130.94,237,119.89c0,0-19.46,50.83-55,39.78,0,0,172.16,81.77,205.31,187.85S2756.29,1103.4,2607.66,1052,2188.86,614.4,2339.69,539.78Z" style="fill:#0f1e60"/><path d="M1943.55,1065.2s13.26-13.26,49.73-19.89,222.1-76.24,222.1-76.24,114.37-172.2,184-188,140.89-20.81,194.76,2.4-6.81,164.16,24.36,268.55,54.37,182.29,39.45,192.23-248.62,56.36-293.37,11.6c-24.92-24.91,25.28-118.53,2.61-186.24-16.18-48.3-19.68-83.93-19.68-83.93s-77.26,88.26-123.67,101.52-256.17,29.93-267.77,26.61C1954.39,1087.25,1943.55,1065.2,1943.55,1065.2Z" style="fill:#5167eb"/><path d="M2349.64,577.9S2329.75,778.46,2411,722.1l6.59,76.25s15,21.54,58,0c20.28-10.14,12.86-38.84,12.86-38.84L2459,660.77s26.52-36.46,16.58-46.41-31.49,10-31.49,10-25.48-5-66.3-46.41C2359.2,559,2349.64,577.9,2349.64,577.9Z" style="fill:#ef735b"/><path d="M2498.8,1052l57.36,9.47s24.78,12.12,45.63,7.53c0,0,27.39,12.55,12,32.78s-102.72,59.82-101.23,45.75c.75-7.07,28.74-12.19,27.64-21.75s-31.68,24.84-39.66,12.81c-4.31-6.51,31.81-22,30.18-28.38s-40.46,28.76-45,16,38-21.85,37.31-34c0,0-40.94,20.86-42.36,13.21s50.58-30.6,50.58-30.6S2484.49,1065.68,2498.8,1052Z" style="fill:#ef735b"/><path d="M1136.36,1156.81a3.81,3.81,0,0,1-1.42-.27c-1.35-.54-136.3-53.38-225.15-54.45l-5.22-.07,1.58-5c.51-1.61,51-162.13,37.24-235.57a3.87,3.87,0,1,1,7.53-1.77c0,.11.05.23.07.35,13,68.85-27.3,206.2-35.94,234.41,90.21,3,221.39,54.34,222.73,54.87a3.87,3.87,0,0,1-1.42,7.47Z" style="fill:#2e469e"/><path d="M957.08,1220c-51.2,0-78.91-4.73-79.41-4.81a3.87,3.87,0,0,1,1.35-7.62c.9.16,92.44,15.71,252.27-10.58a3.87,3.87,0,1,1,1.6,7.57,2,2,0,0,1-.35.06C1059.14,1216.7,999.89,1220,957.08,1220Z" style="fill:#2e469e"/><path d="M1222.24,1127.81l-56.36,14.27s-23.67,14.17-44.83,11.35c0,0-26.23,14.82-9.19,33.67s107.4,51,104.73,37.06c-1.34-7-29.66-9.72-29.37-19.34s33.66,22.08,40.59,9.42c3.75-6.85-33.54-19.27-32.46-25.73s42.74,25.24,46.23,12.09-39.69-18.57-40-30.75c0,0,42.55,17.33,43.32,9.59s-53-26.22-53-26.22S1237.65,1140.26,1222.24,1127.81Z" style="fill:#ef735b"/><path d="M2601.79,1069l49.51-73.39s-102.76-96.14-114.36-117.68,5-112.71,57.18-94.48,163.26,218.79,163.26,218.79-30.34,62.73-143.6,99.54C2613.78,1101.76,2623.55,1081,2601.79,1069Z" style="fill:#5167eb"/><path d="M2606.55,962.57a3.75,3.75,0,0,1-2.48-.9c-2.36-2-57.93-48.68-70.75-82.39a3.87,3.87,0,0,1,7.23-2.75c12.1,31.84,67.92,78.74,68.48,79.21a3.87,3.87,0,0,1,.5,5.44,3.82,3.82,0,0,1-3,1.39Z" style="fill:#2e469e"/><path d="M2347.49,989.51a3.86,3.86,0,0,1-3.85-3.48c-.28-2.79-6.41-68.83,29.24-125.65a3.87,3.87,0,0,1,6.73,3.83l-.18.28c-34.2,54.52-28.16,120.11-28.09,120.77a3.87,3.87,0,0,1-3.47,4.23Z" style="fill:#2e469e"/><path d="M2194.44,2323.77c-10.48,30.28-40.5,50.74-74.3,50.74H1605.5c-33.8,0-63.78-20.46-74.3-50.74-44.82-129.1-156.75-470.75-143.75-626.92,9.9-119.31,94.25-224.08,158.06-287.32,19-18.83,36.2-34,49.08-44.74a81.09,81.09,0,0,1,51.9-18.57h432.7a81,81,0,0,1,51.86,18.57c7.5,6.26,16.47,14,26.41,23.2,64.4,59,169.63,174.73,180.77,308.86C2351.19,1853,2239.26,2194.67,2194.44,2323.77Z" style="fill:#bdf"/><path d="M2203.8,2325.65l-11-3.81c47.39-136.53,156.24-470.71,143.46-624.51-12.62-151.9-147.63-280-205.09-328.08A75.12,75.12,0,0,0,2083,1352H1965.63V1340.4H2083a86.69,86.69,0,0,1,55.61,19.93c58.58,49,196.23,179.76,209.22,336C2360.83,1852.4,2251.43,2188.4,2203.8,2325.65Z" style="fill:#cce0ff"/><path d="M2157.46,1388c-55.15,26.11-187.22,44.52-341.38,44.52-106.9,0-203.2-8.86-270.57-23,19-18.83,36.2-34,49.08-44.74a81.09,81.09,0,0,1,51.9-18.57h432.7a81,81,0,0,1,51.86,18.57C2138.55,1371.05,2147.52,1378.83,2157.46,1388Z" style="fill:#86b3e0"/><path d="M1529.59,2325.65c-47.64-137.25-157-473.25-144.07-629.25,13-156.25,150.63-287,209.21-336a86.79,86.79,0,0,1,55.62-19.93v11.61a75.15,75.15,0,0,0-48.18,17.22c-57.46,48-192.46,176.19-205.09,328.08-12.78,153.8,96.07,488,143.47,624.51Z" style="fill:#71abff"/><polygon points="1714.27 1271.42 2041.35 1271.42 2041.35 1329.17 1703.22 1329.17 1714.27 1271.42" style="fill:#0fb9b1"/><path d="M2494.57,1536.52l-10.35-84,3.51,4.64h0a182.42,182.42,0,0,1-66.86-51.56,175.51,175.51,0,0,1-22.55-35.76,169.94,169.94,0,0,1-13-40.07,3.07,3.07,0,0,1,6-1.26h0a163.55,163.55,0,0,0,13.74,38,166.52,166.52,0,0,0,22.61,33.35c17.64,20.24,39.94,36.61,64.55,46.55h0l3.12,1.36.4,3.29,10.35,84a5.8,5.8,0,0,1-11.51,1.42Z" style="fill:#354db5"/><ellipse cx="1877.89" cy="2304.17" rx="282.99" ry="35.91" style="fill:#679dc9"/><ellipse cx="1300.99" cy="2480.17" rx="202.83" ry="52.94" style="fill:#679dc9"/><path d="M2185,1271.4v78.39c0,22.93-139.5,41.5-311.6,41.5s-311.6-18.57-311.6-41.5V1271.4h4.34c24.67,19.68,152.88,34.65,307.31,34.65s282.63-15,307.31-34.65Z" style="fill:#0aa599"/><path d="M2025.87,1271.17a10.9,10.9,0,0,1-10.19,11.57l-.66,0H1733.39a11.25,11.25,0,0,1-11.15-8.51,10.77,10.77,0,0,1,3-10c1.7-1.7,8.14-3.89,10.62-4.16,1.31,4.53-2.77,8.88,6.2,8.88h260.51a7.27,7.27,0,0,0,6-2.8c1.45-2.17.79-3.93.79-6.08l5.13,1C2020.26,1261,2025.49,1265.4,2025.87,1271.17Z" style="fill:#0aa599"/><path d="M1833.62,1310.47c-197.41,0-269.9-34-273.09-35.57a3.89,3.89,0,1,1,3.38-7c.82.39,85.25,39.75,313.77,34.24,228.75-5.52,301.28-34.06,302-34.34a3.86,3.86,0,0,1,2.93,7.15h0c-2.92,1.2-74,29.36-304.73,34.92Q1854.8,1310.49,1833.62,1310.47Z" style="fill:#5ff2e7"/><path d="M866.19,765.07s-39.78,23.68-58,73.17-41.43,337.44-14.91,358.38,312.85,11.29,334.16,1.71c0,0-23.33-17.88-6.37-44.9,0,0-110.66-40.28-215.08-48.57C901,1056.79,1025.3,776.68,866.19,765.07Z" style="fill:#5167eb"/><path d="M1386.4,1119.78c8.52,6.63,31.79-4.25,31.79-4.25s-34.62,13.56-21.61,19.16,27.35-6.88,27.35-6.88-28,21.58-19.36,24.59,25.16-11.08,25.16-11.08-8.29,16.58-5,17.41,22.38-10.78,22.38-10.78S1433,1097.4,1428,1098.23,1377.87,1113.15,1386.4,1119.78Z" style="fill:#ef735b"/><path d="M1970.73,2255.26c-25.31-7.19-59.27-11.6-96.63-11.6s-71.32,4.41-96.63,11.6h-45v31.49c0,23.8,63.41,43.1,141.63,43.1s141.63-19.3,141.63-43.1v-31.49Z" style="fill:#e5772c"/><ellipse cx="1874.1" cy="2255.26" rx="141.63" ry="43.09" style="fill:#ffb07b"/><path d="M1874.14,2293.14c-56.06,0-115.65-13.27-115.65-37.88s59.55-37.86,115.65-37.86,115.65,13.27,115.65,37.88S1930.14,2293.14,1874.14,2293.14Zm0-68c-63.59,0-107.91,15.89-107.91,30.15s44.28,30.11,107.91,30.11,107.92-15.89,107.92-30.15-44.36-30.14-107.92-30.14Z" style="fill:#f93"/><path d="M1786.19,2255.61l20.91-.32c-.59-3.42,2.36-7,7.16-9.24l14.57,1.19c-4.66,2.25-8,5.41-7.3,8.71.9,4.15,10.07,6.82,22.06,6.67,11.65-.15,18.52-2.53,24.27-7,7.77-6.28,17.37-10.3,36.77-10.65,18.72-.34,33.33,3.08,37.12,8.69l23.07-.35.13,3.81-22.06.31c-.22,3.62-3.65,6.12-7.32,7.89l-14.75-1.31c2.54-1.28,7.22-3.79,6.91-7.64-.39-4.69-10.89-6.3-19.85-6.16-11.56.19-17,2.53-24.21,7.87-8.21,6.19-18.85,9.34-37.66,9.55-16.51.18-32.53-2.79-37.43-8.68l-21.44.31Z" style="fill:#e5772c"/><path d="M1969.26,2212.75c-25.3-7.19-59.27-11.6-96.63-11.6s-71.32,4.41-96.63,11.6h-45v31.49c0,23.81,63.41,43.1,141.63,43.1s141.63-19.29,141.63-43.1v-31.49Z" style="fill:#e5772c"/><ellipse cx="1872.63" cy="2212.75" rx="141.63" ry="43.09" style="fill:#ffb07b"/><path d="M1872.63,2250.63c-56.06,0-115.65-13.27-115.65-37.88s59.59-37.88,115.65-37.88,115.65,13.28,115.65,37.88S1928.7,2250.63,1872.63,2250.63Zm0-68c-63.59,0-107.91,15.88-107.91,30.14s44.32,30.15,107.91,30.15,107.92-15.89,107.92-30.15-44.32-30.16-107.92-30.16Z" style="fill:#f93"/><path d="M1784.72,2213.1l20.91-.32c-.59-3.41,2.36-7,7.17-9.23l14.56,1.18c-4.66,2.25-8,5.41-7.3,8.72.9,4.14,10.07,6.81,22.06,6.66,11.65-.15,18.52-2.53,24.27-7,7.78-6.27,17.37-10.3,36.77-10.65,18.72-.34,33.33,3.08,37.12,8.69l23.07-.34.13,3.8-22.06.31c-.22,3.63-3.64,6.13-7.31,7.9l-14.76-1.31c2.54-1.28,7.22-3.79,6.91-7.65-.39-4.69-10.89-6.3-19.84-6.15-11.57.19-17,2.52-24.22,7.86-8.21,6.19-18.85,9.34-37.66,9.55-16.5.18-32.53-2.78-37.43-8.67l-21.44.3Z" style="fill:#e5772c"/><path d="M1396.14,2414.86c-25.31-7.2-59.27-11.6-96.64-11.6s-71.32,4.4-96.63,11.6h-45v31.54c0,23.8,63.4,43.09,141.62,43.09s141.65-19.34,141.65-43.09v-31.49Z" style="fill:#e5772c"/><ellipse cx="1299.52" cy="2414.86" rx="141.63" ry="43.09" style="fill:#ffb07b"/><path d="M1299.52,2452.74c-56.06,0-115.65-13.28-115.65-37.88s59.59-37.88,115.65-37.88,115.62,13.27,115.62,37.88S1355.59,2452.74,1299.52,2452.74Zm0-68c-63.59,0-107.91,15.89-107.91,30.15s44.32,30.14,107.91,30.14,107.92-15.89,107.92-30.14-44.3-30.18-107.92-30.18Z" style="fill:#f93"/><path d="M1211.61,2415.21l20.91-.32c-.59-3.42,2.36-7,7.17-9.24l14.56,1.19c-4.66,2.25-8,5.41-7.3,8.71.9,4.15,10.07,6.82,22.06,6.67,11.66-.15,18.52-2.53,24.27-7,7.78-6.28,17.37-10.3,36.77-10.65,18.72-.34,33.34,3.08,37.12,8.69l23.07-.35.14,3.81-22.06.31c-.22,3.62-3.65,6.12-7.32,7.89l-14.76-1.31c2.54-1.28,7.23-3.79,6.91-7.64-.38-4.69-10.89-6.3-19.84-6.16-11.57.19-17,2.53-24.22,7.86-8.21,6.19-18.85,9.34-37.65,9.55-16.51.19-32.54-2.78-37.43-8.67l-21.45.3Z" style="fill:#e5772c"/><path d="M1394.69,2372.4c-25.31-7.19-59.27-11.6-96.63-11.6s-71.33,4.41-96.64,11.6h-45v31.49c0,23.8,63.41,43.1,141.63,43.1s141.63-19.3,141.63-43.1V2372.4Z" style="fill:#e5772c"/><ellipse cx="1298.06" cy="2372.35" rx="141.63" ry="43.09" style="fill:#ffb07b"/><path d="M1298.06,2410.23c-56.07,0-115.65-13.28-115.65-37.88s59.58-37.88,115.65-37.88,115.65,13.28,115.65,37.88S1354.14,2410.23,1298.06,2410.23Zm0-68c-63.6,0-107.92,15.88-107.92,30.14s44.32,30.15,107.92,30.15S1406,2386.63,1406,2372.37s-44.32-30.16-107.91-30.16Z" style="fill:#f93"/><path d="M1210.14,2372.7l20.91-.32c-.59-3.42,2.36-7,7.17-9.24l14.56,1.19c-4.66,2.25-8,5.41-7.3,8.72.9,4.14,10.07,6.81,22.06,6.66,11.66-.15,18.53-2.53,24.28-7,7.77-6.28,17.37-10.3,36.76-10.65,18.73-.34,33.34,3.08,37.12,8.69l23.08-.35.13,3.81-22.06.31c-.22,3.63-3.65,6.12-7.32,7.89l-14.76-1.31c2.55-1.27,7.23-3.78,6.91-7.64-.38-4.69-10.89-6.3-19.84-6.16-11.57.19-17,2.53-24.22,7.87-8.21,6.19-18.85,9.34-37.65,9.55-16.51.18-32.53-2.78-37.43-8.68l-21.4.36Z" style="fill:#e5772c"/><path d="M983.87,765.07s36.46,43.65,100.55,38.13V703.75s42,12.15,56.36-10S1122,507.06,1122,507.06s-175.69,11-150.28,84S1010.39,684.4,983.87,765.07Z" style="fill:#ef735b"/><path d="M962.56,515.07s-37.67,15.92-14,52.76c28.75,44.86,49.71,118.33,49.71,118.33s24.32-12.87,18.8-30.79-30.94-64.33-4.42-69.86,22.1,22.7,22.1,22.7h11s18-21.59,5-41.48,91.14-17.68,104.4-48.62-10.75-43.1-10.75-43.1,8.45-45-17-52.7-55.39,30.6-55.39,30.6,3-45.3-21.29-32c-13.12,7.15-47.12,19.11-70.19,44.2C960.89,486.46,942.07,505.92,962.56,515.07Z" style="fill:#0f1e60"/><path d="M1066.51,808.29c-95.09,0-129.12-104.47-129.47-105.59a3.86,3.86,0,1,1,7.37-2.33h0c1.46,4.61,36.86,112.72,139.5,99a3.87,3.87,0,0,1,1,7.67A139.86,139.86,0,0,1,1066.51,808.29Z" style="fill:#2e469e"/><path d="M995.14,837.51c-101.14,0-148.4-43.17-150.88-45.5a3.87,3.87,0,0,1,5.31-5.63c.58.54,47.53,43.17,147,43.17,27.25,0,58.41-3.2,93.67-11.34,21.49-5,12.24-51.87,12.14-52.34a3.87,3.87,0,0,1,7.57-1.59c.47,2.23,11.17,54.74-18,61.47C1055.38,834.19,1023.14,837.51,995.14,837.51Z" style="fill:#2e469e"/><path d="M1131.91,1204.67a3.86,3.86,0,0,1-2.34-.79c-12.7-9.69-19.09-20.11-19-31,.15-15.73,14-26,14.56-26.47a3.86,3.86,0,0,1,4.57,6.23c-.23.18-11.32,8.59-11.4,20.36,0,8.29,5.31,16.61,16,24.72a3.87,3.87,0,0,1-2.35,6.94Z" style="fill:#2e469e"/><path d="M1751.07,2224.4c-42.49,44.94-105.82,59.8-144.54,33.78-40.57-27.26-41.34-90.31,1.77-141.67,45.12-53.76,117.15-70.22,157-36.09C1803.29,2112.92,1795.38,2177.57,1751.07,2224.4Z" style="fill:#e5772c"/><path d="M1736.83,2215.58c-42.53,45.48-106.37,60.44-145.75,34-41.27-27.69-42.66-91.62.43-143.65,45.12-54.48,117.83-71.07,158.47-36.35C1788.62,2102.6,1781.19,2168.15,1736.83,2215.58Z" style="fill:#ffb07b"/><path d="M1642.85,2248.17c-14.62,0-28.38-3.72-39.73-11.51-14.18-9.72-23.35-25.09-25.83-43.27-3.51-25.7,6.11-54.33,26.4-78.51,37.46-44.64,98-58.21,132.34-29.65,13.13,11,20.71,26.52,21.91,45,1.69,26-10,55.3-31.18,78.22h0C1703.06,2234.07,1671.31,2248.17,1642.85,2248.17Zm48.72-170.3c-27.8,0-59.3,15-82,42-18.89,22.52-27.89,49-24.67,72.49,2.22,16.23,10,29.35,22.55,37.95,30.37,20.83,80.26,8.93,113.58-27.08,19.8-21.4,30.69-48.49,29.14-72.47-1.06-16.32-7.68-30-19.15-39.56-10.77-9-24.58-13.33-39.45-13.33Z" style="fill:#f93"/><polygon points="1768.55 2164.06 1784.08 2170.05 1777.07 2187.34 1761.82 2179.92 1768.55 2164.06" style="fill:#ffb07b"/><polygon points="1746.11 2195.95 1767.5 2203.85 1756.19 2219.02 1739.67 2211.3 1746.11 2195.95" style="fill:#ffb07b"/><path d="M1610.2,2223l13.14-14.92c-7.19-5.34-12.47-13.47-13.67-20.46l12-8a32.29,32.29,0,0,0,12.54,19.67c8.85,6.36,20.21,4.54,27.8-4,7.39-8.27,7.18-17,2.06-28.47-7.37-15.91-9.07-29.28,3-43.21,11.67-13.45,28.1-17.75,41.78-10.91l14.51-16.46,7.66,6.31-13.92,15.69c7.08,6.26,9.8,12.82,10.9,18.32l-12.33,8A29.31,29.31,0,0,0,1705,2127c-9.6-7.63-19.73-3.11-25.33,3.29-7.25,8.28-6.19,16-.3,29.89,6.92,16.06,6.18,28.67-5.79,42-10.52,11.66-27,17.7-41.94,11.16l-13.5,15.19Z" style="fill:#e5772c"/><path d="M1251.63,2467.77c-42.49,44.94-105.81,59.8-144.54,33.77-40.56-27.26-41.33-90.31,1.78-141.67,45.11-53.76,117.15-70.22,157-36.08C1303.85,2356.25,1295.94,2420.9,1251.63,2467.77Z" style="fill:#e5772c"/><path d="M1237.39,2458.92c-42.53,45.47-106.37,60.43-145.75,34-41.27-27.69-42.66-91.63.44-143.66,45.12-54.48,117.82-71.06,158.47-36.34C1289.19,2345.93,1281.75,2411.49,1237.39,2458.92Z" style="fill:#ffb07b"/><path d="M1143.41,2491.5c-14.62,0-28.37-3.71-39.72-11.5-14.18-9.73-23.35-25.09-25.84-43.28-3.51-25.7,6.12-54.32,26.41-78.51,37.45-44.64,98-58.2,132.33-29.64,13.14,10.95,20.71,26.51,21.91,45,1.69,26-10,55.29-31.18,78.22h0C1203.62,2477.4,1171.88,2491.5,1143.41,2491.5Zm48.73-170.3c-27.8,0-59.31,15-82,42-18.89,22.52-27.88,49-24.66,72.5,2.21,16.22,10,29.34,22.54,37.94,30.37,20.83,80.26,8.94,113.58-27.07h0c19.8-21.41,30.7-48.5,29.14-72.48-1-16.32-7.67-30-19.14-39.56C1220.81,2325.49,1207,2321.2,1192.14,2321.2Z" style="fill:#f93"/><polygon points="1269.11 2407.4 1284.65 2413.38 1277.63 2430.68 1262.38 2423.25 1269.11 2407.4" style="fill:#ffb07b"/><polygon points="1246.68 2439.28 1268.07 2447.18 1256.75 2462.35 1240.24 2454.63 1246.68 2439.28" style="fill:#ffb07b"/><path d="M1110.76,2466.4l13.15-14.92c-7.19-5.33-12.48-13.47-13.67-20.46l12-8a32.38,32.38,0,0,0,12.54,19.68c8.85,6.35,20.21,4.54,27.81-4,7.38-8.27,7.17-17,2-28.47-7.37-15.9-9.07-29.27,3-43.2,11.66-13.45,28.1-17.76,41.77-10.92l14.51-16.45,7.67,6.31-13.92,15.69c7.08,6.25,9.8,12.81,10.9,18.31l-12.33,8a29.37,29.37,0,0,0-10.68-17.61c-9.59-7.62-19.72-3.11-25.33,3.3-7.24,8.27-6.19,16-.3,29.88,6.92,16.06,6.18,28.68-5.79,42-10.51,11.67-27,17.7-41.93,11.17l-13.53,15.25Z" style="fill:#e5772c"/><path d="M2025.56,2153.48c42.5,44.94,105.82,59.8,144.55,33.78,40.56-27.26,41.33-90.32-1.78-141.68-45.11-53.75-117.15-70.21-157-36.08C1973.35,2042,1981.26,2106.62,2025.56,2153.48Z" style="fill:#e5772c"/><path d="M2039.81,2144.63c42.53,45.48,106.37,60.44,145.75,34,41.26-27.69,42.66-91.62-.44-143.65-45.12-54.48-117.82-71.07-158.47-36.35C1988,2031.64,1995.45,2097.2,2039.81,2144.63Z" style="fill:#ffb07b"/><path d="M2133.78,2177.22c-28.46,0-60.2-14.09-83.9-39.71h0c-21.22-22.92-32.87-52.17-31.19-78.22,1.2-18.49,8.78-34.06,21.92-45,34.28-28.57,94.88-15,132.33,29.65,20.3,24.18,29.92,52.8,26.41,78.51-2.48,18.18-11.66,33.55-25.84,43.27C2162.14,2173.5,2148.4,2177.22,2133.78,2177.22Zm-78.22-45c33.32,36,83.21,47.9,113.58,27.08,12.53-8.6,20.33-21.72,22.54-38,3.22-23.55-5.77-50-24.66-72.49-34.77-41.44-90.39-54.57-121.46-28.67-11.47,9.56-18.09,23.24-19.15,39.56-1.55,24,9.35,51.07,29.15,72.47Z" style="fill:#f93"/><polygon points="2008.09 2093.11 1992.55 2099.1 1999.57 2116.39 2014.81 2108.97 2008.09 2093.11" style="fill:#ffb07b"/><polygon points="2030.52 2125 2009.13 2132.89 2020.45 2148.07 2036.96 2140.35 2030.52 2125" style="fill:#ffb07b"/><path d="M2158.93,2156.72l-13.22-14.86c-6.17,6.49-14.88,10.75-22,11.09l-6.52-12.84a32.32,32.32,0,0,0,21-10.07c7.39-8,7-19.51-.56-28.08-7.31-8.33-16-9.18-28-5.49-16.67,5.39-30.15,5.46-42.52-8.23-11.93-13.21-14.21-30-5.77-42.79l-14.58-16.39,7.2-6.85,13.89,15.72c7.06-6.27,13.9-8.17,19.5-8.6l6.39,13.2A29.43,29.43,0,0,0,2075,2051c-8.73,8.6-5.48,19.2.2,25.54,7.34,8.19,15.1,8.08,29.63,3.92,16.78-4.93,29.21-2.66,40.95,10.83,10.31,11.85,14.3,28.92,6,43l13.51,15.27Z" style="fill:#e5772c"/><path d="M1997.65,2160c-25.31-7.2-59.27-11.61-96.63-11.61s-71.32,4.41-96.63,11.61h-45v31.49c0,23.8,63.41,43.09,141.63,43.09s141.63-19.29,141.63-43.09V2160Z" style="fill:#e5772c"/><ellipse cx="1901.02" cy="2159.96" rx="141.63" ry="43.09" style="fill:#ffb07b"/><path d="M1901,2197.84c-56.06,0-115.65-13.28-115.65-37.89s59.59-37.87,115.65-37.87,115.65,13.27,115.65,37.87S1957.08,2197.84,1901,2197.84Zm0-68c-63.6,0-107.92,15.89-107.92,30.14s44.32,30.15,107.92,30.15,107.91-15.89,107.91-30.15-44.32-30.17-107.91-30.17Z" style="fill:#f93"/><path d="M1813.14,2160.3l20.91-.32c-.6-3.41,2.36-7,7.16-9.23l14.57,1.19c-4.66,2.25-8,5.41-7.3,8.71.9,4.15,10.07,6.82,22,6.67,11.66-.15,18.53-2.53,24.28-7,7.77-6.27,17.37-10.3,36.77-10.65,18.72-.33,33.33,3.08,37.12,8.7l23.07-.35.13,3.81-22.06.3c-.22,3.63-3.65,6.13-7.32,7.9l-14.75-1.31c2.54-1.28,7.22-3.79,6.91-7.65-.39-4.69-10.89-6.3-19.85-6.15-11.56.19-17,2.53-24.21,7.86-8.21,6.19-18.85,9.34-37.66,9.55-16.51.19-32.53-2.78-37.43-8.67l-21.44.3Z" style="fill:#e5772c"/><path d="M2154.38,2067.87a34.85,34.85,0,0,1-32.89-46.23c46.68-134.47,60.06-258.22,57.33-323.34-5.7-136.17-94.53-208.07-98.31-211.06a34.81,34.81,0,0,1,42.86-54.86c4.81,3.74,117.91,93.58,125,263,3,71.22-11.24,205.37-61.12,349.08A34.82,34.82,0,0,1,2154.38,2067.87Z" style="fill:#fff"/><circle cx="1537.09" cy="444.6" r="65.06" style="fill:#fff"/><path d="M1537.05,511.59a67,67,0,1,1,66-78.4h0a67,67,0,0,1-54.62,77.43A67.86,67.86,0,0,1,1537.05,511.59Zm.07-130.12a63.13,63.13,0,1,0,63.09,63.17,64,64,0,0,0-.92-10.79h0a63.24,63.24,0,0,0-62.15-52.38Z" style="fill:#2e469e"/><path d="M1520.89,423.85c1.28,7.44-1.33,14.1-5.84,14.88s-9.21-4.62-10.5-12.06,1.33-14.11,5.84-14.89S1519.6,416.4,1520.89,423.85Z" style="fill:#2e469e"/><path d="M1560.9,416.93c1.29,7.45-1.33,14.11-5.84,14.89s-9.2-4.62-10.49-12.06,1.33-14.11,5.84-14.89S1559.62,409.49,1560.9,416.93Z" style="fill:#2e469e"/><path d="M1574,448.29a35.7,35.7,0,1,1-70.36,12.15h0Z" style="fill:#2e469e"/><path d="M1538.14,549.52a105.41,105.41,0,1,1,18.12-1.56A105.41,105.41,0,0,1,1538.14,549.52Zm.27-206.39a101.26,101.26,0,1,0,99.71,84v0h0a101.43,101.43,0,0,0-99.76-84Z" style="fill:#2e469e"/><path d="M1367.14,546.63a1.93,1.93,0,0,1-2-1.91,2,2,0,0,1,1.06-1.74l74.67-38.71a1.94,1.94,0,1,1,2,3.34l-.2.1L1368,546.41A1.86,1.86,0,0,1,1367.14,546.63Z" style="fill:#2e469e"/><path d="M1340.08,560.06a1.93,1.93,0,0,1-1.95-1.91,2,2,0,0,1,1.08-1.75l19.09-9.52a1.93,1.93,0,0,1,1.73,3.46l-19.09,9.52A1.84,1.84,0,0,1,1340.08,560.06Z" style="fill:#2e469e"/><path d="M1875.75,480.86c-2.45,0-4.91-.08-7.38-.26a104.68,104.68,0,1,1,7.38.26Zm-.22-206.32a101.21,101.21,0,1,0,76.41,34.7,101.2,101.2,0,0,0-76.41-34.7Z" style="fill:#2e469e"/><circle cx="1875.58" cy="375.62" r="59.67" transform="translate(4.03 770.86) rotate(-23.25)" style="fill:#fff"/><path d="M1875.69,437.34a41.86,41.86,0,0,1-4.33-.15,61.6,61.6,0,0,1-36.22-107.9h0a61.6,61.6,0,1,1,40.55,108Zm-38-105.14a57.74,57.74,0,1,0,81.46,5.63h0A57.81,57.81,0,0,0,1837.69,332.2Z" style="fill:#2e469e"/><path d="M2050.14,472a1.87,1.87,0,0,1-1-.28l-71.84-43.75a1.94,1.94,0,0,1,2-3.31l71.84,43.77a1.93,1.93,0,0,1-1,3.58Z" style="fill:#2e469e"/><path d="M2075.69,488.12a2,2,0,0,1-1-.3l-18-11.38a1.93,1.93,0,1,1,2.06-3.27l18,11.38a1.94,1.94,0,0,1-1,3.57Z" style="fill:#2e469e"/><path d="M1873,421V409.31c-6.79-.12-13.71-2.23-17.82-5.16l2.81-7.86a31.49,31.49,0,0,0,16.77,5c8.33,0,14-4.81,14-11.49,0-6.45-4.57-10.44-13.25-14-12-4.69-19.35-10.2-19.35-20.4,0-9.73,6.92-17.12,17.59-18.88V324.79h7.35v11.38a32.22,32.22,0,0,1,15.25,4.1l-2.93,7.74a28.32,28.32,0,0,0-14.78-4.1c-9,0-12.42,5.39-12.42,10.2,0,6,4.33,9,14.53,13.37,12.08,4.92,18.18,10.9,18.18,21.34,0,9.38-6.45,18.06-18.53,19.93V421Z" style="fill:#2e469e"/><path d="M303.67,1060.11c131.92-7.22,199.53-258.94,120-337.48S64.37,1073.19,303.67,1060.11Z" style="fill:#f0f5ff"/><path d="M3329.65,1180.22c103-82.75,11.23-326.7-99.2-344.16S3142.81,1330.32,3329.65,1180.22Z" style="fill:#f0f5ff"/><path d="M2144.67,64C2292.24,181.07,1706,208.71,1626.9,139.65S1952.54-88.53,2144.67,64Z" style="fill:#f0f5ff"/><path d="M1056.8,1541.61a5.26,5.26,0,0,1-1-.1,5.78,5.78,0,0,1-4.66-6.73h0l9-49.3,2.76-1.27c.94-.42,93.55-43.8,97-153a5.81,5.81,0,0,1,5.79-5.62h.19a5.8,5.8,0,0,1,5.61,6v0c-3.31,105.48-84.73,153.32-101,161.82l-7.92,43.48A5.8,5.8,0,0,1,1056.8,1541.61Z" style="fill:#354db5"/><path d="M1787.41,1242.79c-.12,14.79-4.46,27.53-14,35.09-9,7-29.46,5.36-40.82-.76a22.44,22.44,0,0,1-2.31-1.39c-4.5-3-8.43-7.27-12.13-11.84-1.78-2.2-3.5-4.47-5.21-6.72l-10.3-13.61q-4.41-5.8-8.81-11.63c-2.88-3.79-8.61-13.92-11.22-20a236.42,236.42,0,0,1,70.75-61.17,214.09,214.09,0,0,0,10.54,32.79l.46,1.12c2.78,6.69,6.85,14,10.79,21.62a161.32,161.32,0,0,1,8.88,19.32A50.3,50.3,0,0,1,1787.41,1242.79Z" style="fill:#231f20;opacity:0.20000000298023224;isolation:isolate"/><path d="M1752,1128s-88-36.82-64.44,61.11c13,54.07,58.6,104.57,85.36,70.37,17.35-22.17-33.24-92.34-19.29-117Z" style="fill:#d4916e"/><path d="M1768.14,1264.54c-27.1,23.33-68.29-24.47-80.57-75.44-19.12-79.36,52-126.89,79.7-142.06-2.75,1.51-5.61,6.6-7.89,8.93-3.23,3.33-6.63,6.48-10,9.62-6.62,6.09-13.39,12.06-19.34,18.82-36.42,41.33-38.84,106.61-4.75,150.15a113.47,113.47,0,0,0,15.93,16.2c6.31,5.39,13.21,10.43,21.21,12.65A38.19,38.19,0,0,0,1768.14,1264.54Z" style="fill:#333;opacity:0.20000000298023224;isolation:isolate"/></g></g></svg>